<svg xmlns="http://www.w3.org/2000/svg" width="492" height="339" fill="none"><path fill="#000" d="M303.233 146.638c0 67.22-54.366 121.713-121.43 121.713-67.064 0-121.43-54.493-121.43-121.713S114.74 24.924 181.803 24.924c67.064 0 121.43 54.493 121.43 121.714ZM345.626 241.704c0 12.728-10.294 23.046-22.992 23.046-12.699 0-22.993-10.318-22.993-23.046s10.294-23.047 22.993-23.047c12.698 0 22.992 10.319 22.992 23.047Z"/><path fill="#909090" d="M278.875 303.644c-58.038.003-108.535-43.394-115.995-102.583l1.426-.181c7.368 58.459 57.25 101.32 114.57 101.323 4.87 0 9.735-.307 14.567-.921 63.22-8.005 108.155-66.07 100.168-129.437l1.426-.181c8.086 64.155-37.408 122.943-101.414 131.047a117.29 117.29 0 0 1-14.748.933Z"/><path fill="#909090" d="M281.991 327.733H259.14a3.23 3.23 0 0 1-2.54-1.226 3.183 3.183 0 0 1-.62-2.698 62.451 62.451 0 0 0-.374-29.096 3.23 3.23 0 0 1 1.402-3.51c7.906-4.909 16.514-4.756 26.318.469a3.279 3.279 0 0 1 1.702 2.359 102.17 102.17 0 0 1 .168 30.914 3.228 3.228 0 0 1-3.205 2.788Z"/><path fill="#CCC" d="M177.806 205.3h-22.852a3.231 3.231 0 0 1-2.54-1.227 3.18 3.18 0 0 1-.619-2.697 62.444 62.444 0 0 0-.399-29.194 3.252 3.252 0 0 1 1.257-3.413c11.75-8.47 21.004-8.225 27.504.732.293.408.488.879.569 1.375a102.17 102.17 0 0 1 .285 31.635 3.231 3.231 0 0 1-3.205 2.789Z"/><path fill="#fff" d="M271.314 306.236h-7.861a1.64 1.64 0 0 1-1.633-1.643c0-.905.73-1.64 1.633-1.643h7.861a1.642 1.642 0 0 1 1.637 1.643c0 .907-.733 1.642-1.637 1.643ZM280.926 312.728h-17.473a1.64 1.64 0 0 1-1.633-1.643c0-.905.73-1.64 1.633-1.643h17.473a1.64 1.64 0 0 1 1.633 1.643c0 .905-.73 1.64-1.633 1.643Z"/><path fill="#000" d="M170.721 182.362h-7.861a1.64 1.64 0 0 1-1.633-1.643c0-.905.73-1.639 1.633-1.642h7.861a1.64 1.64 0 0 1 1.634 1.642c0 .906-.731 1.64-1.634 1.643ZM170.721 188.124h-7.861a1.64 1.64 0 0 1-1.633-1.643c0-.905.73-1.64 1.633-1.643h7.861a1.642 1.642 0 0 1 1.634 1.643c0 .905-.731 1.64-1.634 1.643ZM170.721 193.885h-7.861a1.64 1.64 0 0 1-1.633-1.642c0-.906.73-1.64 1.633-1.643h7.861a1.641 1.641 0 0 1 1.634 1.643 1.64 1.64 0 0 1-1.634 1.642ZM479.615 228.759h-73.049c-4.076-.005-7.379-3.316-7.384-7.402v-45.096c.005-4.085 3.308-7.396 7.384-7.401h73.049c4.076.005 7.379 3.316 7.384 7.401v45.096c-.005 4.086-3.308 7.397-7.384 7.402Z"/><path fill="#fff" d="M450.591 222.95h-38.89c-3.818-.004-6.911-3.105-6.916-6.932V181.6c.004-3.826 3.098-6.927 6.915-6.931h62.78c3.818.004 6.911 3.105 6.915 6.931v10.474c-.018 17.043-13.798 30.856-30.802 30.876h-.002Z"/><path fill="#000" d="M468.217 193.515h-50.253a1.64 1.64 0 0 1-1.639-1.642 1.64 1.64 0 0 1 1.639-1.643h50.253a1.64 1.64 0 0 1 1.639 1.643 1.64 1.64 0 0 1-1.639 1.642ZM425.825 200.007h-7.861a1.64 1.64 0 0 1-1.639-1.643 1.64 1.64 0 0 1 1.639-1.643h7.861a1.64 1.64 0 0 1 1.633 1.643c0 .905-.73 1.64-1.633 1.643ZM439.747 206.498h-21.783a1.64 1.64 0 0 1-1.637-1.643c0-.906.732-1.641 1.637-1.643h21.783a1.64 1.64 0 0 1 1.422.821 1.647 1.647 0 0 1 0 1.644 1.638 1.638 0 0 1-1.422.821Z"/><path fill="#909090" d="M410.649 171.563c0 8.554-6.919 15.489-15.453 15.489-8.534 0-15.453-6.935-15.453-15.489 0-8.554 6.919-15.489 15.453-15.489 8.534 0 15.453 6.935 15.453 15.489ZM227.457 53.74c4.302-21.888 25.492-36.136 47.329-31.824 21.836 4.312 36.051 25.552 31.749 47.44l-1.41-.28c2.687-13.654-2.098-27.708-12.554-36.867a38.793 38.793 0 0 0-38.132-7.533c-13.14 4.498-22.888 15.681-25.571 29.337l-1.411-.273Z"/><path fill="#fff" d="m242.76 79.223-22.832.948a3.23 3.23 0 0 1-2.588-1.12 3.18 3.18 0 0 1-.731-2.67 62.47 62.47 0 0 0-1.491-28.773 3.223 3.223 0 0 1 1.586-3.764c9.352-4.87 18.115-5.117 26.044-.735a3.26 3.26 0 0 1 1.632 2.203 102.184 102.184 0 0 1 1.467 30.992 3.23 3.23 0 0 1-3.087 2.92Z"/><path fill="#000" d="m241.794 64.245-17.458.724a1.638 1.638 0 0 1-1.454-.76 1.646 1.646 0 0 1-.068-1.643 1.64 1.64 0 0 1 1.386-.88l17.458-.724a1.64 1.64 0 0 1 1.705 1.573 1.64 1.64 0 0 1-1.569 1.71ZM241.556 58.488l-17.458.725a1.64 1.64 0 0 1-1.705-1.574 1.64 1.64 0 0 1 1.569-1.709l17.458-.725a1.641 1.641 0 0 1 1.706 1.574 1.642 1.642 0 0 1-1.57 1.71ZM392.182 71.975h-73.049c-4.076-.005-7.379-3.316-7.384-7.401V19.478c.005-4.086 3.308-7.397 7.384-7.402h73.049c4.076.005 7.379 3.316 7.384 7.402v45.096c-.005 4.085-3.308 7.396-7.384 7.401Z"/><path fill="#fff" d="M363.158 66.166h-38.89c-3.818-.004-6.911-3.105-6.916-6.931V24.816c.004-3.825 3.098-6.927 6.916-6.931h62.779c3.818.004 6.911 3.105 6.915 6.931v10.475c-.019 17.044-13.799 30.856-30.804 30.875Z"/><path fill="#000" d="M380.784 36.732h-50.253a1.642 1.642 0 0 1 0-3.286h50.253c.586 0 1.128.312 1.421.82a1.647 1.647 0 0 1 0 1.645 1.638 1.638 0 0 1-1.421.82ZM338.392 43.223h-7.861a1.641 1.641 0 0 1-1.636-1.643c0-.906.732-1.64 1.636-1.643h7.861a1.641 1.641 0 0 1 1.635 1.643c0 .906-.732 1.641-1.635 1.643ZM352.314 49.714h-21.783a1.64 1.64 0 0 1-1.639-1.642 1.64 1.64 0 0 1 1.639-1.643h21.783a1.641 1.641 0 0 1 1.636 1.642c0 .907-.732 1.641-1.636 1.643Z"/><path fill="#909090" d="M315.465 58.45c7.248 4.516 9.471 14.067 4.966 21.332-4.505 7.265-14.034 9.493-21.282 4.977-7.248-4.516-9.471-14.066-4.965-21.331 4.505-7.265 14.033-9.494 21.281-4.978ZM101.458 192.435c-13.202-34.982 4.389-74.068 39.289-87.301 34.901-13.233 73.896 4.399 87.098 39.381l-1.345.51c-8.358-22.148-27.87-38.144-51.185-41.963-23.316-3.818-46.892 5.121-61.849 23.45-14.957 18.33-19.022 43.265-10.663 65.413l-1.345.51Z"/><path fill="#fff" d="M160.561 125.358H137.71a3.231 3.231 0 0 1-2.54-1.227 3.18 3.18 0 0 1-.62-2.697 62.453 62.453 0 0 0-.357-29.03 3.218 3.218 0 0 1 1.478-3.557c8.278-4.83 17.118-4.682 26.273.44a3.248 3.248 0 0 1 1.648 2.329 102.202 102.202 0 0 1 .174 30.953 3.23 3.23 0 0 1-3.205 2.789Z"/><path fill="#000" d="M149.884 103.14h-7.861a1.64 1.64 0 0 1-1.633-1.642c0-.906.73-1.64 1.633-1.643h7.861a1.641 1.641 0 0 1 1.634 1.643 1.64 1.64 0 0 1-1.634 1.642ZM159.496 109.632h-17.473a1.641 1.641 0 0 1-1.636-1.643c0-.906.732-1.641 1.636-1.643h17.473a1.64 1.64 0 0 1 1.633 1.643c0 .905-.73 1.64-1.633 1.643ZM85.373 191.528H12.325c-4.076-.005-7.38-3.316-7.384-7.402V139.03c.004-4.085 3.307-7.396 7.384-7.401h73.048c4.076.005 7.38 3.316 7.384 7.401v45.096c-.004 4.086-3.308 7.397-7.384 7.402Z"/><path fill="#fff" d="M56.35 185.719H17.46c-3.818-.004-6.912-3.105-6.916-6.931v-34.419c.004-3.826 3.098-6.927 6.915-6.931h62.78c3.817.004 6.91 3.105 6.915 6.931v10.474c-.019 17.043-13.798 30.856-30.803 30.876h-.001Z"/><path fill="#000" d="M73.976 156.284H23.722a1.64 1.64 0 0 1-1.639-1.642 1.64 1.64 0 0 1 1.64-1.643h50.253a1.64 1.64 0 0 1 1.639 1.643 1.64 1.64 0 0 1-1.64 1.642ZM31.583 162.776h-7.86c-.906 0-1.64-.736-1.64-1.643s.734-1.643 1.64-1.643h7.86a1.641 1.641 0 0 1 1.634 1.643c0 .905-.73 1.64-1.634 1.643ZM45.506 169.267H23.722a1.641 1.641 0 0 1-1.634-1.643c0-.905.731-1.64 1.634-1.643h21.784a1.642 1.642 0 0 1 1.636 1.643 1.64 1.64 0 0 1-1.636 1.643Z"/><path fill="#909090" d="M109.25 176.563c7.248 4.516 9.471 14.066 4.965 21.331-4.505 7.265-14.033 9.493-21.281 4.977-7.248-4.516-9.471-14.066-4.966-21.331 4.505-7.265 14.034-9.493 21.282-4.977ZM238.88 168.57h-22.852a3.23 3.23 0 0 1-2.539-1.227 3.177 3.177 0 0 1-.62-2.697 62.455 62.455 0 0 0-.345-28.981 3.235 3.235 0 0 1 1.526-3.585c11.101-6.37 19.891-6.194 26.873.537a3.21 3.21 0 0 1 .919 1.784 102.198 102.198 0 0 1 .243 31.38 3.23 3.23 0 0 1-3.205 2.789Z"/><path fill="#fff" d="M229.64 147.073h-7.861a1.64 1.64 0 0 1-1.633-1.643c0-.905.73-1.64 1.633-1.643h7.861a1.642 1.642 0 0 1 1.634 1.643c0 .905-.731 1.64-1.634 1.643ZM239.252 153.564h-17.473a1.642 1.642 0 0 1 0-3.286h17.473a1.64 1.64 0 0 1 1.633 1.643c0 .905-.73 1.64-1.633 1.643Z"/></svg>