<?xml version="1.0" encoding="UTF-8"?>
<!-- Generated by Pixelmator Pro 3.7.1 -->
<svg width="570" height="511" viewBox="0 0 570 511" xmlns="http://www.w3.org/2000/svg">
    <path id="Path" fill="#000000" stroke="none" d="M 564.999268 195 C 564.795166 195.000122 564.595886 194.937592 564.428467 194.820801 L 287.869629 2.217285 C 286.145935 1.022461 283.860779 1.026367 282.141113 2.227051 L 7.574341 194.818848 C 7.122101 195.136047 6.498352 195.026581 6.181152 194.574341 C 5.863953 194.122101 5.973419 193.498352 6.425659 193.181152 L 280.992676 0.589355 C 283.40033 -1.09137 286.599487 -1.096619 289.012634 0.576172 L 565.571472 193.179169 C 565.930054 193.429047 566.0849 193.882751 565.953857 194.299683 C 565.822815 194.716583 565.436279 195.000183 564.999207 194.999969 Z"/>
    <path id="path1" fill="#e6e6e6" stroke="none" d="M 23.264 201.827179 L 285.276001 7.644165 L 549.276001 215.644165 L 298.776001 364.144165 L 162.776001 333.144165 L 23.264 201.827179 Z"/>
    <path id="path2" fill="#000000" stroke="none" d="M 174.255524 455.866272 L 44.815216 455.866272 C 42.652863 455.869019 40.653564 454.717041 39.571564 452.844849 C 38.489563 450.972656 38.489563 448.665161 39.571564 446.792969 C 40.653564 444.920776 42.652863 443.768738 44.815216 443.771545 L 174.255524 443.771545 C 176.417908 443.768738 178.417206 444.920776 179.499176 446.792969 C 180.581177 448.665161 180.581177 450.972656 179.499176 452.844849 C 178.417206 454.717041 176.417908 455.869019 174.255524 455.866272 Z"/>
    <path id="path3" fill="#000000" stroke="none" d="M 91.255524 429.866272 L 44.815216 429.866272 C 42.652863 429.869019 40.653564 428.717041 39.571564 426.844849 C 38.489563 424.972656 38.489563 422.665161 39.571564 420.792969 C 40.653564 418.920776 42.652863 417.768738 44.815216 417.771545 L 91.255524 417.771545 C 93.417908 417.768738 95.417206 418.920776 96.499176 420.792969 C 97.581177 422.665161 97.581177 424.972656 96.499176 426.844849 C 95.417206 428.717041 93.417908 429.869019 91.255524 429.866272 Z"/>
    <path id="path4" fill="#ffffff" stroke="none" d="M 288.960144 309.98468 C 287.976318 309.985718 287.00177 309.7948 286.091003 309.422668 L 124.500214 242.37384 L 124.500214 32.499817 C 124.5047 28.635681 127.636078 25.504333 131.500214 25.499817 L 441.500183 25.499817 C 445.364319 25.504333 448.495667 28.635681 448.500183 32.499817 L 448.500183 242.520325 L 448.196472 242.650208 L 291.916199 309.389893 C 290.980347 309.783203 289.975281 309.985413 288.960144 309.98468 Z"/>
    <path id="path5" fill="#000000" stroke="none" d="M 288.960144 310.484192 C 287.911072 310.485352 286.871826 310.281982 285.900574 309.885559 L 124.000214 242.707794 L 124.000214 32.499786 C 124.004883 28.359619 127.360016 25.004486 131.500214 24.999786 L 441.500183 24.999786 C 445.640381 25.004486 448.995483 28.359619 449.000183 32.499786 L 449.000183 242.850403 L 292.112488 309.849365 C 291.114624 310.269287 290.042786 310.485107 288.960144 310.484192 Z M 126.000153 241.371887 L 286.663269 308.036438 C 288.161804 308.644409 289.840088 308.634399 291.331238 308.008545 L 447.000244 241.53009 L 447.000244 32.499786 C 446.996643 29.463715 444.536316 27.003387 441.500244 26.999786 L 131.500244 26.999786 C 128.464172 27.003387 126.003845 29.463715 126.000244 32.499786 Z"/>
    <path id="path6" fill="#000000" stroke="none" d="M 563 193 L 562.799805 193 L 448 242.02002 L 290.930176 309.090027 C 289.690613 309.611389 288.294678 309.618591 287.049805 309.109985 L 125 241.880005 L 7.379883 193.080017 L 7.200195 193 L 7 193 C 3.135773 193.004303 0.004272 196.135803 0 200 L 0 504 C 0.004303 507.864197 3.135773 510.995728 7 511 L 563 511 C 566.864197 510.995728 569.995728 507.864197 570 504 L 570 200 C 569.995728 196.135803 566.864197 193.004303 563 193 Z M 568 504 C 567.998901 506.760986 565.760986 508.998901 563 509 L 7 509 C 4.239044 508.998901 2.001099 506.760986 2 504 L 2 200 C 2.003754 197.313385 4.12561 195.107758 6.810059 195 L 125 244.039978 L 286.280273 310.959961 C 288.026123 311.670288 289.9823 311.659546 291.720215 310.929993 L 448 244.190002 L 563.200195 195 C 565.879456 195.115692 567.993835 197.318268 568 200 Z"/>
    <path id="path7" fill="#000000" stroke="none" d="M 272.344971 261.472168 C 266.379578 261.483337 260.572266 259.554321 255.799072 255.976074 L 255.503174 255.753906 L 193.1922 208.046387 C 181.055969 198.747559 178.755798 181.370972 188.054626 169.234741 C 197.353455 157.098511 214.730042 154.79834 226.866272 164.097168 L 267.226624 195.044922 L 362.604553 70.658203 C 367.07196 64.831635 373.671021 61.018463 380.950012 60.057617 C 388.228943 59.096741 395.591492 61.066925 401.417786 65.534668 L 400.824768 66.339844 L 401.433167 65.546387 C 413.549988 74.858887 415.84198 92.222198 406.556702 104.359863 L 294.369385 250.668457 C 289.110229 257.502106 280.968079 261.496124 272.344971 261.472168 Z"/>
</svg>
