<svg xmlns="http://www.w3.org/2000/svg" width="495" height="341" fill="none"><g clip-path="url(#a)"><path fill="#000" d="M25.803 100.15a143.482 143.482 0 0 1 31.335-50.265c11.728-12.2 29.98-11.694 29.98-11.694l.105-.13c8.982-11.1 23.731-15.716 37.421-11.714 1.74.5 3.078.722 3.715.5 11.607-4.072 11.062-13.26 21.076-20.662 17.534-12.96 75.692 1.885 83.893 25.734 6.647 19.33 36.316 28.698 47.401 43.483a295.229 295.229 0 0 1 5.101 7.016 226.056 226.056 0 0 1 2.32 3.322 295.984 295.984 0 0 1 21.084 35.719 208.565 208.565 0 0 1 10.553 24.993c11.56 33.866 7.607 59.098-24.267 52.864a345.537 345.537 0 0 0-11.048-1.985 308.144 308.144 0 0 0-15.059-2.098c-6.516-.742-12.714-1.229-18.596-1.459-1.978-.08-3.919-.133-5.825-.16-28.168-.392-49.063 4.921-64.981 13.169a92.828 92.828 0 0 0-7.671 4.426 95.476 95.476 0 0 0-10.545 7.827 103.244 103.244 0 0 0-12.705 13.046l-.211.259c-18.618 22.822-24.745 48.088-37.696 52.536-55.362 19.02-90.376-49.926-93.967-117.37a213.382 213.382 0 0 1-.278-14.686c.057-3.92.23-7.814.518-11.661a174.865 174.865 0 0 1 .9-9.069c1.408-11.364 3.872-22.176 7.447-31.941Z"/><path fill="#fff" d="M81.64 143.467c-2.105 1.406-4.26-1.941-2.114-3.284 2.105-1.406 4.26 1.94 2.114 3.284ZM244.225 95.382c-2.106 1.406-4.261-1.94-2.115-3.284 2.106-1.406 4.261 1.94 2.115 3.284Z"/><path fill="#E6E6E6" d="M151.433 133.631c-2.106 1.406-4.261-1.94-2.115-3.284 2.106-1.406 4.261 1.941 2.115 3.284Z"/><path fill="#fff" d="M81.64 264.772c-2.105 1.406-4.26-1.941-2.114-3.284 2.105-1.406 4.26 1.94 2.114 3.284ZM142.065 36.584c-2.106 1.406-4.261-1.94-2.115-3.284 2.105-1.406 4.261 1.94 2.115 3.284ZM203.015 43.312l-1.34-.294.293-1.343-.893-.197-.294 1.343-1.339-.293-.196.895 1.34.294-.294 1.343.893.196.294-1.343 1.34.294.196-.895ZM35.178 148.904l-1.34-.295.293-1.343-.893-.196-.294 1.343-1.34-.294-.196.895 1.34.294-.293 1.344.893.195.294-1.342 1.34.294.196-.895Z"/><path fill="#D5D5D5" d="M439.519 96.417c-7.15 2.225-15.077 4.411-23.781 6.557-45.019 11.098-105.363 19.755-169.915 24.377-64.551 4.622-125.599 4.656-171.897.096-22.554-2.222-40.392-5.417-53.02-9.498C7.537 113.63.512 108.424.026 102.478c-.945-11.584 23.467-21.78 44.114-28.292l.559 1.553C16.346 84.683 1.1 94.135 1.773 102.353c.854 10.467 27.22 19.019 72.336 23.463 46.196 4.55 107.131 4.515 171.581-.099 64.449-4.615 124.682-13.255 169.602-24.328 43.869-10.814 68.541-23.02 67.686-33.488-.71-8.69-19.005-16.125-51.516-20.934l.273-1.62c23.623 3.495 51.992 10.223 52.989 22.43.485 5.945-5.613 12.09-18.125 18.263-7.133 3.518-16.196 6.99-27.08 10.377Z"/><mask id="b" width="495" height="341" x="0" y="0" maskUnits="userSpaceOnUse" style="mask-type:luminance"><path fill="#fff" fill-rule="evenodd" d="M0 341h495V0H0v341Z" clip-rule="evenodd"/></mask><g mask="url(#b)"><path fill="#333" d="M106.713 53.305c0 24.17-19.551 43.763-43.67 43.763-24.118 0-43.67-19.593-43.67-43.763 0-24.17 19.552-43.764 43.67-43.764 24.119 0 43.67 19.594 43.67 43.764Z"/></g><path fill="#797979" d="m203.819 308.81 4.122 9.262c-3.351-.535-6.467 2.333-6.537 6.016-.07 3.683 2.919 7.514 6.269 8.038-.64 2.859-3.404 4.119-5.802 5.275-2.399 1.156-4.985 3.072-4.806 6.119.143 2.446 2.162 4.606 4.305 5.474 2.144.869 4.393.735 6.564.59-3.29 3.448-3.61 9.931-.721 14.582 2.889 4.65 8.659 6.94 12.98 5.15-3.053 3.805-2.39 10.774 1.399 14.701 3.819 3.959 9.354 4.342 14.192 3.925a62.775 62.775 0 0 0 33.753-13.405c3.699-2.945 7.154-6.409 9.264-10.928 2.111-4.519 2.732-10.24.767-15.382.53 6.442 6.964 11.529 12.752 11.814 5.787.285 10.841-2.982 15.135-6.708 5.711-4.954 10.998-11.899 10.214-20.468-.388-4.242-2.237-8.321-4.05-12.273l-3.515-7.661c-1.42-3.093-2.871-6.238-5.007-8.834-2.136-2.595-5.101-4.605-8.068-4.586.678-3.106 1.36-6.327.791-9.627-.568-3.3-2.745-6.717-5.706-7.49-3.768-.984-6.962 2.501-10.751 2.172-3.646-.316-6.659-3.983-10.2-5.436a8.155 8.155 0 0 0-8.812 1.527c-2.244 2.196-3.18 5.906-2.374 9.417.705 3.075 2.583 5.787 3.723 8.753 1.139 2.966 1.316 6.779-.873 8.399-2.641 1.954-6.661-.705-8.725-3.923s-3.248-7.114-5.858-9.82c-3.08-3.194-7.901-3.942-11.072-1.719-3.171 2.224-4.384 7.203-2.785 11.435 1.307 3.46 4.301 6.961 3.263 10.22-1.098 3.444-5.9 3.008-8.797.574-2.897-2.434-4.821-6.1-7.683-8.589-2.906-2.528-6.701-3.635-10.033-2.928a10.338 10.338 0 0 0-7.403 6.629"/><path fill="#333" d="m270.556 282.78-8.553 3.983a6.547 6.547 0 0 1-4.151.56c-1.242-.294-2.081-1.055-2.301-2.088l-1.991-9.315c-.375-1.757 1.077-3.836 3.453-4.942l4.724-2.199c2.376-1.107 4.898-.878 5.996.543l5.82 7.531c.646.835.685 1.969.108 3.109a6.569 6.569 0 0 1-3.105 2.818ZM207.091 154.245c-5.198 2.425-5.284 13.288-3.654 16.808l2.954 6.371 18.828-8.767-2.954-6.371c-1.633-3.518-9.972-10.458-15.174-8.041ZM156.494 245.714a2.065 2.065 0 0 1-.868-3.934l97.234-45.273a2.052 2.052 0 0 1 1.574-.067 2.065 2.065 0 0 1 .161 3.808l-97.234 45.273a2.047 2.047 0 0 1-.867.193Z"/><path fill="#E6E6E6" d="m204.759 185.662 27.794-12.942 43.6 94.041-27.794 12.941-43.6-94.04Z"/><path fill="#333" d="M128.217 54.339c-5.198 2.425-5.284 13.288-3.654 16.808l2.954 6.37 18.828-8.766-2.954-6.37c-1.633-3.519-9.972-10.459-15.174-8.042ZM244.684 293.591l-8.553 3.982a6.541 6.541 0 0 1-4.151.561c-1.242-.294-2.081-1.055-2.302-2.088l-1.99-9.315c-.375-1.757 1.077-3.836 3.453-4.942l4.724-2.2c2.376-1.106 4.898-.877 5.996.544l5.82 7.531c.646.835.685 1.969.108 3.109a6.569 6.569 0 0 1-3.105 2.818ZM218.388 306.665l-8.552 3.983a6.551 6.551 0 0 1-4.152.56c-1.242-.294-2.081-1.055-2.301-2.088l-1.99-9.315c-.376-1.757 1.076-3.836 3.453-4.942l4.723-2.199c2.376-1.107 4.898-.878 5.996.543l5.82 7.531c.646.835.685 1.969.109 3.109a6.57 6.57 0 0 1-3.106 2.818Z"/><path fill="#E6E6E6" d="m133.302 101.752 27.794-12.941 88.131 190.092-27.794 12.941-88.131-190.092Z"/><path fill="#333" d="m189.935 186.803-3.119-6.877 1.795-.83 3.109 6.855 45.023 100.04-1.793.835M225.11 181.087l-3.118-6.878 1.795-.829 3.109 6.855 45.023 100.039-1.794.835"/><path fill="#E6E6E6" d="m174.214 104.024-37.659 17.534c-2.398-3.738-9.626-22.894-8.003-28.578l-1.218-5.42 26.003-12.107 3.481 4.291c5.166 1.589 15.224 19.581 17.396 24.28Z"/><path fill="#E6E6E6" d="M154.424 75.685 127.59 88.18c-.991.461-2.045.292-2.356-.378a.931.931 0 0 1-.082-.307l-1.389-14.847c-.059-.636.484-1.356 1.313-1.742l17.795-8.286c.829-.386 1.729-.337 2.175.119l10.428 10.638c.533.545.243 1.476-.647 2.08a2.9 2.9 0 0 1-.403.23Z"/><path fill="#333" d="M175.47 192.008c-.29.001-.58-.033-.862-.102a2.663 2.663 0 0 1-1.852-1.441l-16.406-35.386c-.679-1.464.233-3.338 2.032-4.176l24.022-11.185c1.8-.838 3.816-.327 4.496 1.138l16.405 35.385a2.676 2.676 0 0 1-.095 2.348 4.05 4.05 0 0 1-1.937 1.828l-24.022 11.185a4.237 4.237 0 0 1-1.781.406Z"/><path fill="#E6E6E6" d="m150.962 210.305 27.794-12.941 43.599 94.041-27.794 12.941-43.599-94.041Z"/><path fill="#333" d="m144.514 77.236-8.151 3.795c-1.573.733-3.695-.488-4.73-2.72-1.034-2.231-.597-4.644.976-5.376l8.151-3.795c1.573-.732 3.695.488 4.73 2.72 1.034 2.232.597 4.644-.976 5.376ZM153.835 178.636c-5.198 2.426-5.283 13.289-3.653 16.808l2.953 6.371 18.829-8.766-2.954-6.371c-1.633-3.519-9.973-10.459-15.175-8.042ZM250.056 211.453a4.042 4.042 0 0 1-5.367-1.966l-4.807-10.369a4.053 4.053 0 0 1 1.964-5.374 4.038 4.038 0 0 1 5.365 1.962l4.807 10.369a4.058 4.058 0 0 1-1.962 5.378ZM168.296 249.562a4.042 4.042 0 0 1-5.367-1.966l-4.807-10.368a4.054 4.054 0 0 1 1.962-5.379 4.038 4.038 0 0 1 5.367 1.966l4.807 10.369a4.057 4.057 0 0 1-1.962 5.378Z"/><path fill="#E6E6E6" d="m242.651 188.799-32.232 15.007c-2.052-3.199-8.238-19.594-6.849-24.458l.682-5.442 19.245-9.462 4.265 3.576c6.008-2.036 14.84 12.884 14.889 20.779Z"/><path fill="#333" d="m227.687 187.759-8.151 3.795c-1.573.732-3.966-1.073-5.334-4.024-1.368-2.951-1.202-5.948.371-6.681l8.151-3.795c1.573-.732 3.966 1.073 5.334 4.024 1.368 2.951 1.202 5.948-.371 6.681ZM158.562 207.287l-3.119-6.877 1.795-.83 3.11 6.855 45.022 100.039-1.793.835"/><path fill="#E6E6E6" d="m189.395 213.191-32.231 15.007c-4.755-2.46-12.022-18.56-6.849-24.458l.682-5.442 19.245-9.462 4.264 3.575c4.422 1.36 13.03 16.759 14.889 20.78ZM255.663 222.567l21.95 5.694 13.463 26.499-22.76.895-12.653-33.088Z"/><path fill="#CCC" d="m205 184.366 12.081 12.113 30.682 66.479-5.649 4.89L205 184.366ZM178.733 195.346l.948 17.099 28.96 67.251 7.404-.956-37.312-83.394Z"/><path fill="#E6E6E6" d="m177.943 264.425-11.822 19.389 8.715 28.424 16.976-15.218-13.869-32.595Z"/><path fill="#333" d="m173.768 210.719-8.151 3.795c-1.573.733-3.817-.752-5.002-3.308-1.185-2.557-.87-5.233.703-5.965l8.151-3.795c1.572-.733 3.817.752 5.002 3.308 1.185 2.557.87 5.233-.703 5.965Z"/><path fill="#D5D5D5" d="M449.393 308.605c-6.507 0-13.638-.266-21.393-.799-40.116-2.763-92.078-12.367-146.315-27.044-54.236-14.676-104.267-32.672-140.877-50.672-17.833-8.768-31.52-17.068-40.681-24.669-9.698-8.047-13.94-15.062-12.609-20.848 2.594-11.272 25.563-13.738 44.374-13.821l.006 1.639c-25.833.115-41.073 4.582-42.913 12.579-2.344 10.186 16.773 26.087 52.447 43.627 36.529 17.96 86.469 35.921 140.619 50.575 54.151 14.653 106.017 24.241 146.045 26.998 39.09 2.692 62.855-1.606 65.199-11.791 1.946-8.457-10.883-20.915-36.123-35.079l.695-1.456c18.339 10.292 39.628 25.054 36.895 36.932-1.332 5.786-8.116 9.816-20.163 11.979-6.868 1.233-15.303 1.85-25.206 1.85Z"/><path fill="#D5D5D5" d="M98.924 309.888c-5.587 0-9.22-1.391-10.827-4.157-3.17-5.453 2.14-15.023 15.781-28.441l1.145 1.169c-12.67 12.465-18.18 21.857-15.512 26.447 1.688 2.903 6.71 3.943 14.53 3.008 7.762-.929 18.048-3.697 30.573-8.227 25.786-9.326 58.136-25.056 91.093-44.295 32.955-19.238 62.568-39.679 83.384-57.557 3.998-3.434 7.627-6.739 10.785-9.82a107.608 107.608 0 0 0 11.437-12.773c4.669-6.354 6.245-11.246 4.557-14.15-2.819-4.849-14.661-4.393-33.346 1.286l-.474-1.569c20.047-6.092 31.901-6.275 35.233-.542 2.071 3.562.505 8.927-4.653 15.947a109.218 109.218 0 0 1-11.613 12.976c-3.183 3.105-6.837 6.433-10.862 9.89-20.888 17.941-50.587 38.443-83.625 57.728-33.039 19.287-65.485 35.063-91.36 44.421-12.642 4.572-23.05 7.369-30.935 8.312-1.762.22-3.536.336-5.311.347Z"/><path fill="#333" d="M355.657 227.016a2.437 2.437 0 0 1 2.435 2.44v23.599h46.693a2.437 2.437 0 0 1 2.434 2.439 2.437 2.437 0 0 1-2.434 2.439h-46.693v81.611h-4.869V229.456c0-1.348 1.09-2.44 2.434-2.44ZM444.736 331.82H435v-70.912c8.144-.585 14.265-3.084 14.265-6.079 0-3.43-8.025-6.21-17.925-6.21-9.899 0-17.924 2.78-17.924 6.21 0 3.024 6.24 5.541 14.502 6.095v70.896h-9.737a3.538 3.538 0 0 0-3.066 1.774 3.552 3.552 0 0 0 0 3.548 3.538 3.538 0 0 0 3.066 1.774h26.555a3.54 3.54 0 0 0 3.067-1.774 3.557 3.557 0 0 0 0-3.548 3.54 3.54 0 0 0-3.067-1.774Z"/><path fill="#A0616A" d="m425.191 295.82-3.199 3.493-14.965-10.701 4.72-5.155 13.444 12.363Z"/><path fill="#000" d="M417.013 305.039a5.912 5.912 0 0 0 1.918 4.128l.141.131 4.195-4.581 6.117-6.681-4.516-4.154-.815.892-.085.092-4.064 1.926-.861.411-.148.068-.324 3.489v.003a5.897 5.897 0 0 0-1.558 4.276Z"/><path fill="#A0616A" d="m441.762 330.665-4.527 1.378-7.457-16.84 6.68-2.034 5.304 17.496Z"/><path fill="#000" d="m429.597 338.967.055.187 14.595-4.443-1.781-5.877-1.153.351-.121.036-5.426-.499-.16-.013-2.054 2.839c-3.136.954-4.907 4.276-3.955 7.419ZM404.438 242.491s-28.899 27.962-10.629 36.617h5.646a37.52 37.52 0 0 1 5.582-11.136c.533-.7 2.532-.558 3.087-1.24 3.389-4.163 7.063-7.739 9.6-7.597l-.607 19.32-.982 6.891c-.516 3.563 14.042 34.668 14.042 34.668l9.15-3.604s-9.533-25.62-9.645-29.313l7.64-40.611-32.884-3.995Z"/><path fill="#000" d="M402.028 243.871c.147.21.34.385.563.511.369.209.768.358 1.182.44 6.507 1.48 27.762 4.548 33.28 3.085.678-.177 1.12-.427 1.264-.755.462-1.037.403-5.418.131-10.708-.049-.991-1.14-2.064-1.205-3.101-.046-.777.933-1.509.881-2.3a650.26 650.26 0 0 0-1.137-14.245c-.196-2.215-.33-3.6-.33-3.6l3.356-21.209-.157-.259-.177-.089-10.822-5.369-.59-1.509a2.33 2.33 0 0 0-2.158-1.48l-7.128-.03a2.322 2.322 0 0 0-1.896.965l-1.932 2.681-12.771 8.204.049.151 5.992 18.275.03 1.424v.004l.223 11.452-.619 1.553.697 2.546s-.321 2.976-2.04 5.188c-1.559 2.008-3.543 4.102-4.44 5.802v.003c-.498.939-.665 1.753-.246 2.37ZM392.421 277.447l1.545 1.956s14.206 9.96 14.694 10.891l2.245 2.129 5.432-5.82-2.825-3.548a22.182 22.182 0 0 0-8.507-6.527l-4.33-3.849-8.254 4.768Z"/><path fill="#A0616A" d="m443.593 250.477-2.587-25.095-.683-10.328 7.241-1.312s-.287 7.385.662 11.552c.936 4.111.124 24.632.066 25.18a3.535 3.535 0 0 1 .943 3.891 3.521 3.521 0 0 1-6.581.003 3.534 3.534 0 0 1 .939-3.891Z"/><path fill="#000" d="m434.97 212.472 2.017 4.326.705 1.506 1.895 9.95.947 1.007.815 3.252.383-.079 6.91-1.434 2.014-.417a3.842 3.842 0 0 0-.695-4.8c-.137-.125-.252-.247-.249-.361.115-6.921-.307-19.559-4.122-24.76-1.212-1.651-1.939-3.295-2.996-4.443-.004-.003-.004-.007-.007-.007l-2.574-4.223-.157-.259-.177-.089-4.709 20.831Z"/><path fill="#A0616A" d="M432.587 171.97c0 5.25-4.246 9.506-9.485 9.506-5.238 0-9.485-4.256-9.485-9.506 0-5.249 4.247-9.505 9.485-9.505 5.239 0 9.485 4.256 9.485 9.505Z"/><path fill="#000" d="M434.365 169.925c.278-1.597.494-3.668-.301-5.509-.673-1.549-2.355-3.001-4.225-2.805a1.953 1.953 0 0 0-.607-1.951 5.111 5.111 0 0 0-2.075-.978c-1.758-.518-3.578-1.054-5.458-1.064-2.11-.012-3.979.712-5.125 1.989l-.028.042-.344.822a.83.83 0 0 1-.508.469.81.81 0 0 1-.688-.085.751.751 0 0 0-1.142.606l-.019.351-.492-.197a.749.749 0 0 0-1.017.821l.065.418a.794.794 0 0 0-.61.138.733.733 0 0 0-.261.824 6.83 6.83 0 0 0 1.896 2.839 5.698 5.698 0 0 0 1.59 1.016 33.652 33.652 0 0 0 11.934 2.709 6.943 6.943 0 0 0-.741 2.383 2.607 2.607 0 0 0 1.112 2.458c.17.097.349.179.533.245.177.065.348.144.511.237a1.596 1.596 0 0 1-.065 2.769s.706.863.818.849c.45-.103.856-.343 1.162-.689 2.054-1.999 3.429-4.926 4.085-8.707Z"/><path fill="#E6E6E6" d="M392.773 245.727c-3.281-.066-20.908-.573-23.798-.448-.164-.574-5.643 6.464-5.776 6.507a.803.803 0 0 0 .267 1.29c.323.196 28.739-.331 29.083-.262a.79.79 0 0 0 .705-.461l.19-.426c.02-.729.258-4.457.044-5.094a.789.789 0 0 0-.715-1.106Z"/><path fill="#000" d="M393.444 251.926c-.167.402-.38.907-.895.888l-28.782.324a.794.794 0 0 1-.693-1.168l30.37-.044Z" opacity=".17"/><path fill="#E6E6E6" d="M369.109 245.193c-.309-.537-8.004-38.694-8.647-39.013l-5.253-6.44-.47-.354c-.653-.36-2.219-.117-2.078.883 1.234 5.93 9.173 39.705 9.347 44.97l.955 6.708a.828.828 0 0 0 1.018.679 1.586 1.586 0 0 0 1.274-.922c.071-.237 4.214-6.374 3.854-6.511Z"/><path fill="#000" d="m355.208 199.74 10.048 51.965c-.336.852-1.909 1.45-2.275.332-.006-.002-10.308-51.736-10.319-51.767-.11-1.245 1.943-1.285 2.546-.53Z" opacity=".17"/><path fill="#A5A5A5" d="m355.51 201.865 5.103 7.128 5.728 27.262-2.662 2.328-8.169-36.718Z"/><path fill="#2F2E41" d="m389.479 249.403 1.412.057c.022-.414.09-.825.204-1.224.212-1.011.402-2.213-.478-2.209-.598-.057-.802.701-.908 1.526-.027.622-.104 1.24-.23 1.85ZM381.38 247.5l.951.036.461.017c-.009-.505.225-1.548-.346-1.805a.705.705 0 0 0-.287-.058c-.536-.031-.695.377-.744.848-.031.283-.018.585-.026.82 0 .049-.005.098-.009.142ZM378.56 247.385l.956.04.456.017c-.009-.581.297-1.849-.633-1.867-.858-.049-.748 1.047-.77 1.668 0 .049-.004.097-.009.142ZM375.741 247.274l.952.035.46.018c-.009-.577.297-1.845-.633-1.863-.858-.053-.748 1.042-.77 1.668 0 .049-.004.097-.009.142ZM372.922 247.158l.956.04.456.018c-.009-.581.296-1.845-.633-1.867-.859-.049-.748 1.047-.77 1.668 0 .048-.005.097-.009.141ZM370.103 247.048l.951.035.46.018c-.008-.533.248-1.646-.433-1.836h-.005a.64.64 0 0 0-.194-.027.662.662 0 0 0-.239.022h-.005c-.593.155-.509 1.087-.527 1.646 0 .048-.004.097-.008.142ZM386.633 246.746l1.412.058c0-.054 0-.111.005-.178.035-.337.04-.677.017-1.015-.048-.373-.208-.666-.655-.675-.456-.026-.637.266-.708.643-.016.065-.028.13-.035.196v.004c-.036.346-.014.719-.036.967ZM383.814 246.631l1.412.057c.03-.38.039-.762.026-1.144-.039-.39-.194-.71-.659-.719-.469-.031-.651.289-.722.683-.066.382-.031.839-.057 1.123Z"/><path fill="#2F2E41" d="m380.995 246.52.42.018.992.039c-.005-.212.035-.523.039-.829a1.94 1.94 0 0 0-.008-.275c-.036-.412-.182-.754-.664-.763-.492-.026-.664.315-.726.732-.062.373-.027.803-.053 1.078ZM386.66 249.292l1.412.053c-.005-.577.296-1.845-.633-1.863-.93-.057-.726 1.229-.779 1.81ZM383.841 249.177l1.411.057c-.004-.581.297-1.849-.632-1.867-.93-.053-.726 1.233-.779 1.81ZM381.021 249.066l1.412.053c-.004-.413.151-1.175-.102-1.584a.583.583 0 0 0-.531-.279.623.623 0 0 0-.411.102c-.452.297-.324 1.238-.368 1.708ZM378.202 248.95l1.412.058c-.005-.412.146-1.171-.098-1.583a.584.584 0 0 0-.535-.284.614.614 0 0 0-.412.102c-.451.306-.323 1.242-.367 1.707ZM375.383 248.839l1.411.054c-.004-.413.151-1.176-.101-1.584a.584.584 0 0 0-.531-.279.62.62 0 0 0-.412.102c-.451.297-.323 1.237-.367 1.707ZM372.563 248.724l1.412.058c-.004-.413.146-1.171-.097-1.584a.583.583 0 0 0-.536-.284.616.616 0 0 0-.411.102c-.452.306-.323 1.242-.368 1.708ZM369.744 248.613l1.412.053c-.005-.412.146-1.17-.102-1.583a.576.576 0 0 0-.531-.279.614.614 0 0 0-.412.102c-.451.301-.323 1.237-.367 1.707Z"/><path fill="#A0616A" d="m385.689 244.513 10.761-22.807 4.068-9.513-6.394-3.649s-2.178 7.061-4.455 10.675c-2.246 3.566-8.284 23.191-8.412 23.727a3.532 3.532 0 0 0-2.179 3.356 3.53 3.53 0 0 0 2.35 3.238 3.517 3.517 0 0 0 3.857-1.044 3.537 3.537 0 0 0 .404-3.983Z"/><path fill="#000" d="m385.623 223.397 8.139 4.921 1.845-2.796 1.229-.635 5.088-8.754 4.497-4.593 5.943-19.036-7.732 1.163-.01.003c-1.377.732-2.61 2.041-4.299 3.195-5.322 3.635-9.912 15.413-12.098 21.981-.036.107-.183.183-.354.256a3.84 3.84 0 0 0-2.248 4.295Z"/><path fill="#fff" d="m205.557 146.582 34.13-99.89-37.476 98.695a1.885 1.885 0 0 0-.084 2.223 1.875 1.875 0 0 0 3.43-1.028Z" opacity=".3"/><path fill="#fff" d="M287.218 141.934c0 3.23-2.613 5.848-5.835 5.848a5.842 5.842 0 0 1-5.836-5.848 5.842 5.842 0 0 1 5.836-5.848c3.222 0 5.835 2.618 5.835 5.848Z"/><path fill="#000" d="M383.419 314.893c0 3.229-2.613 5.848-5.836 5.848-3.223 0-5.835-2.619-5.835-5.848 0-3.23 2.612-5.848 5.835-5.848a5.842 5.842 0 0 1 5.836 5.848Z"/><path fill="#797979" d="M197.49 344.315c0 6.297-5.093 11.402-11.377 11.402-6.283 0-11.377-5.105-11.377-11.402 0-6.296 5.094-11.401 11.377-11.401 6.284 0 11.377 5.105 11.377 11.401Z"/><path fill="#fff" d="M69.402 214.726c0 3.23-2.613 5.848-5.836 5.848-3.223 0-5.835-2.618-5.835-5.848s2.612-5.848 5.835-5.848 5.836 2.618 5.836 5.848Z"/><path fill="#333" d="M495.45 340.063a.827.827 0 0 1-.263.601.93.93 0 0 1-.637.248H1.368c-.496 0-.899-.38-.899-.849s.403-.849.9-.849H494.55a.925.925 0 0 1 .637.248.825.825 0 0 1 .263.601Z"/></g><defs><clipPath id="a"><path fill="#fff" d="M0 0h495v341H0z"/></clipPath></defs></svg>