<svg xmlns="http://www.w3.org/2000/svg" width="495" height="382" fill="none"><path fill="#000" d="M305.649 379.081s-7.355-18.148 14.709-31.759l-14.709 31.759ZM296.604 378.751s-2.243-12.935-19.608-12.824l19.608 12.824ZM462.491 379.081s-9.717-23.976 19.432-41.957l-19.432 41.957ZM450.541 378.645s-2.964-17.089-25.906-16.942l25.906 16.942Z"/><path fill="#959595" d="m305.907 146.401-10.984-5.848.822-.438 10.984 5.849-.822.437Z"/><path fill="#797979" d="m309.421 139.838-.821-.438 10.983-5.849.822.438-10.984 5.849ZM227.136 95.538l.53-1.037 3.103 1.594-.53 1.037-3.103-1.594ZM278.906 135.422l-6.176-3.172.53-1.037 6.176 3.172-.53 1.037Zm-12.352-6.345-6.177-3.173.53-1.037 6.177 3.173-.53 1.037Zm-12.353-6.345-6.176-3.173.53-1.037 6.176 3.173-.53 1.037Zm-12.353-6.346-6.176-3.172.53-1.037 6.176 3.172-.53 1.037Zm-12.352-6.345-6.176-3.172.53-1.037 6.176 3.172-.53 1.037ZM285.082 138.595l.53-1.037 3.103 1.594-.53 1.037-3.103-1.594Z"/><path fill="#000" d="M64.413 196.783a16.43 16.43 0 0 1-1.568 7.036l-.022.046a16.185 16.185 0 0 1-.997 1.799 16.43 16.43 0 0 1-13.492 7.611l.162 9.383 2.123-1.121.379.722-2.485 1.312.303 20.051.004.232-1.641.367.003-.234.517-30.71a16.393 16.393 0 0 1-11.914-5.391l-.012-.012a16.52 16.52 0 0 1-2.997-4.65l.048.053c-3.43-8.041-.006-17.368 7.805-21.262l.172-.085c7.716-3.726 16.994-.902 21.342 6.495a16.447 16.447 0 0 1 2.27 8.358Z"/><path fill="#000" d="M83.768 182.251c0 11.942-9.657 21.623-21.57 21.623s-21.57-9.681-21.57-21.623c0-11.942 9.657-21.623 21.57-21.623s21.57 9.681 21.57 21.623Z"/><path fill="#000" d="m63.365 242.488-2.203-.619.004-.238.66-35.967.034-1.793v-.053l.116-6.284.167-9.108v-.001l.113-6.174h.061l.116 6.689.151 8.705.109 6.177v.046l.004.255v.001l.21 12.041.021 1.196.433 24.888.004.239Z"/><path fill="#202020" d="M46.271 167.808c-4.156 9.745-.654 21.073 8.27 26.755 8.924 5.682 20.64 4.043 27.673-3.87a21.571 21.571 0 0 1-19.584 13.124 21.569 21.569 0 0 1-19.885-12.661 21.666 21.666 0 0 1 3.526-23.348Z"/><path fill="#000" d="m62.122 192.294 3.566-1.882.497.946-3.566 1.882-.497-.946Z"/><path fill="#000" stroke="#000" stroke-linecap="round" stroke-linejoin="round" stroke-width="5" d="M354.909 88.126a478.685 478.685 0 0 0-81.696 1.442c-13.092 1.359-26.393 2.827-39.243 6.107-10.35 2.641-22.363 7.106-28.812 17.506-2.738 4.247-3.588 9.721-2.298 14.794 1.538 5.928 5.363 10.863 9.437 14.728 9.376 8.895 21.009 14.072 31.401 21.139 18.973 12.903 36.338 30.296 47.483 52.389 4.905 9.722 9.57 22.649 4.109 33.362-5.35 10.494-17.294 14.11-27.034 15.815-12.208 2.137-24.783 1.558-37.042.361a339.536 339.536 0 0 1-40.04-6.735c-25.928-5.718-51.62-12.991-77.908-16.298a196.694 196.694 0 0 0-39.722-1.319c-11.965.927-24.033 3.1-35.273 8.055-8.662 3.818-17.895 9.595-22.573 19.228-4.51 9.287-2.751 19.996 2.16 28.564 5.908 10.309 15.122 17.373 24.702 22.536 10.907 5.879 22.573 9.69 34.254 12.93 5.924 1.644 11.88 3.13 17.837 4.608 1.243.308 1.774-1.884.527-2.193-12.013-2.981-24.06-5.972-35.774-10.287-10.84-3.993-21.934-9.109-30.811-17.494-7.182-6.784-14.01-16.692-13.586-27.957.427-11.357 8.724-19.287 16.856-24.167 10.163-6.1 21.71-9.071 33.024-10.624a174.885 174.885 0 0 1 39.009-.609c26.227 2.292 51.867 9.153 77.581 15.137 24.981 5.814 50.741 11.197 76.341 9.706 10.147-.591 21.019-2.261 29.978-8.143 4.102-2.693 7.801-6.491 9.886-11.433 1.878-4.702 2.472-9.948 1.704-15.045-1.453-11.198-7.245-21.582-13.023-30.501-6.335-9.674-13.682-18.415-21.878-26.026-8.994-8.313-18.692-15.568-28.948-21.657-5.438-3.288-10.954-6.45-16.137-10.259-4.97-3.652-9.872-8.046-12.907-13.975-2.624-5.127-3.106-10.979-.372-16.18 2.765-5.26 7.529-8.928 12.227-11.609 11.32-6.46 24.479-8.188 36.864-9.96a475.498 475.498 0 0 1 80.177-4.59c6.511.175 13.018.485 19.521.928 1.273.086 1.268-2.189-.001-2.274Z"/><path fill="#797979" d="m337.638 17.783 4.112-3.297c-3.194-.353-4.507 1.393-5.044 2.776-2.496-1.04-5.213.322-5.213.322l8.228 2.995a6.242 6.242 0 0 0-2.083-2.796ZM317.68 28.222l4.112-3.298c-3.195-.353-4.507 1.394-5.044 2.776-2.496-1.039-5.213.323-5.213.323l8.228 2.994a6.242 6.242 0 0 0-2.083-2.795ZM337.638 44.749l4.112-3.297c-3.194-.354-4.507 1.393-5.044 2.776-2.496-1.04-5.213.322-5.213.322l8.228 2.995a6.242 6.242 0 0 0-2.083-2.796ZM288.376 37.214c0 6.86-5.547 12.42-12.39 12.42-6.843 0-12.39-5.56-12.39-12.42s5.547-12.421 12.39-12.421c6.843 0 12.39 5.56 12.39 12.42Z"/><path fill="#000" d="M314.84 75.487h-60.784c-.076 0-.152-.005-.227-.018l28.748-49.914a2.012 2.012 0 0 1 3.504 0l19.293 33.495.924 1.602 8.542 14.835Z"/><path fill="#000" d="M348.681 75.487H296.11l10.186-14.833.733-1.069 13.275-19.33a2.685 2.685 0 0 1 3.99-.239c.069.076.132.155.191.239l24.196 35.232Z"/><path fill="#797979" d="M243.628 209c5.761 2.887 9.269 6.699 9.269 10.881 0 9.008-16.261 16.31-36.319 16.31-8.721 0-16.722-1.381-22.982-3.682 6.649 3.332 16.302 5.43 27.05 5.43 20.058 0 36.319-7.302 36.319-16.311 0-5.091-5.198-9.637-13.337-12.628Z"/><path fill="#797979" d="M256.443 215.188c6.501 3.257 10.459 7.559 10.459 12.277 0 10.165-18.348 18.405-40.981 18.405-9.841 0-18.869-1.559-25.933-4.155 7.503 3.76 18.395 6.127 30.523 6.127 22.633 0 40.981-8.24 40.981-18.405 0-5.745-5.864-10.874-15.049-14.249Z"/><path fill="#797979" d="M238.724 211.726c4.059 2.033 6.53 4.719 6.53 7.665 0 6.347-11.456 11.492-25.588 11.492a47.947 47.947 0 0 1-16.192-2.595c4.685 2.348 11.486 3.826 19.058 3.826 14.132 0 25.588-5.145 25.588-11.491 0-3.588-3.662-6.79-9.396-8.897Z"/><path fill="#000" d="M181.691 210.561s.892 13.069 26.461 13.069 33.202-13.069 33.202-13.069h-59.663ZM217.983 176.27a17.916 17.916 0 0 0-12.928-3.545c8.493 2.053 14.292 9.92 13.755 18.662-.537 8.742-7.256 15.837-15.936 16.829 8.291 2.006 16.85-2.092 20.504-9.818 3.655-7.726 1.403-16.962-5.395-22.128Z"/><path fill="#000" d="M207.861 170.367h1.744v41.598h-1.744v-41.598Z"/><path fill="#797979" d="m316.317 133.552-.009-.016-.024-1.016 5.462-7.949-5.455 7.189-.02.214-.186-8.124 4.717-8.241-4.731 6.813.05-16.832-.001-.056-.001.055-.313 13.266-4.3-5.388 4.286 6.531-.094 7.267-3.956-7.092 3.941 8.161-.052 4.041-.145 11.195-.01.837c.364.003.725-.003 1.082-.018l-.248-10.754.007-.083ZM290.167 137.047l-.009-.016-.023-1.016 5.461-7.949-5.455 7.189-.02.214-.186-8.124 4.717-8.241-4.731 6.813.05-16.832-.001-.056-.001.055-.313 13.266-4.299-5.388 4.285 6.531-.094 7.267-3.956-7.092 3.942 8.161-.053 4.041-.144 11.195-.011.837c.364.003.725-.003 1.082-.018l-.247-10.754.006-.083ZM302.952 125.979l-.01-.016-.023-1.016 5.461-7.949-5.455 7.189-.019.214-.187-8.124 4.717-8.241-4.73 6.814.049-16.833v-.056l-.002.055-.313 13.266-4.299-5.388 4.285 6.531-.094 7.268-3.956-7.093 3.942 8.161-.053 4.041-.144 11.195-.011.837c.365.003.725-.003 1.082-.018l-.247-10.754.007-.083Z"/><path fill="#000" d="M116.869 340.643c0 3.861-3.122 6.99-6.973 6.99s-6.973-3.129-6.973-6.99 3.122-6.99 6.973-6.99 6.973 3.129 6.973 6.99Z"/><path fill="#FFB7B7" d="m414.661 366.163-5.64 2.101-10.766-20.807 8.324-3.1 8.082 21.806Z"/><path fill="#000" d="m418.13 371.108-18.184 6.772-.086-.23c-1.452-3.919.539-8.275 4.448-9.732l11.107-4.136 2.715 7.326Z"/><path fill="#FFB7B7" d="M359.16 372.034h-6.017l-2.862-23.263 8.88.001-.001 23.262Z"/><path fill="#000" d="M360.203 377.88h-19.399v-.246c0-4.18 3.38-7.569 7.55-7.569h11.85l-.001 7.815ZM386.705 210.698l-1.963-3.936-16.685 8.363.49 3.444-3.19 4.181s-5.398 2.952-4.416 12.791l.981 9.347 1.227 12.052-8.588 29.762-4.417 39.355-3.189 31.73 15.458-.738 14.231-51.653 25.028 55.589 17.176-4.428-23.555-55.097-2.945-23.121s1.963-12.298-7.361-20.661l1.472-4.427v-5.456l4.908-26.028-4.662-11.069Z"/><path fill="#000" d="m376.367 305.317 10.796-38.371.555.157-10.796 38.371-.555-.157Z" opacity=".2"/><path fill="#797979" d="M362.168 256.94h24.046v2.46h-24.046v-2.46Z"/><path fill="#3F3D56" d="M363.149 258.416c0 1.358-.439 2.46-.981 2.46s-.982-1.102-.982-2.46c0-1.359.44-2.46.982-2.46s.981 1.101.981 2.46Z"/><path fill="#FFB7B7" d="M384.489 186.54c3.466 6.355 1.136 14.322-5.203 17.796-6.339 3.473-14.287 1.138-17.752-5.216-3.466-6.355-1.136-14.322 5.203-17.796s14.287-1.138 17.752 5.216Z"/><path fill="#000" d="M404.601 176.548c0 6.407-5.181 11.601-11.572 11.601-6.392 0-11.573-5.194-11.573-11.601 0-6.407 5.181-11.6 11.573-11.6 6.391 0 11.572 5.193 11.572 11.6Z"/><path fill="#000" d="M407.714 175.306a11.62 11.62 0 0 1-3.134 11.733 11.55 11.55 0 0 1-11.858 2.499 11.595 11.595 0 0 1-7.582-9.475c1.719 5.786 7.578 9.284 13.472 8.042 5.894-1.242 9.853-6.809 9.102-12.799Z"/><path fill="#000" d="M361.997 189.189c-.699 6.165 2.819 12.032 8.577 14.308a13.663 13.663 0 0 0 16.009-4.593 13.74 13.74 0 0 0-.272-16.69 13.66 13.66 0 0 0-16.15-4.067c-2.285-1.847-5.119-1.274-7.422.675-2.605 2.205-3.378 3.72-5.398 7.345 1.986.28 2.669 2.743 4.656 3.022Z"/><path fill="#797979" d="M410.08 228.624c-.147 3.886-.437 11.535-.437 11.925 0 .412-5.785 12.419-8.284 17.586v.003c-.178.364-.337.694-.478.985a2.323 2.323 0 0 1-2.136 1.315l-10.921-.196a2.331 2.331 0 0 1-2.288-2.275l-1.218-48.166a1.19 1.19 0 0 1 1.187-1.221h14.085a3.169 3.169 0 0 1 2.849 1.792l6.76 14.02a8.978 8.978 0 0 1 .881 4.232Z"/><path fill="#797979" d="M385.346 254.662a31.303 31.303 0 0 1-7.462-6.322 34.737 34.737 0 0 1-8.625-20.17c-.555-6.401.712-11.159 3.766-14.142 3.882-3.792 9.166-3.241 9.39-3.216l.236.027 3.58 3.037-1.013 1.2-3.203-2.717c-.981-.049-4.984-.06-7.908 2.807-2.692 2.64-3.797 6.969-3.286 12.868a33.176 33.176 0 0 0 8.194 19.215 30.406 30.406 0 0 0 7.088 6.036l-.757 1.377Z"/><path fill="#000" d="m386.587 240.292 19.083-3.929.105.513-19.083 3.929-.105-.513Z"/><path fill="#000" d="m392.57 208.591.522-.022 1.24 30.439-.523.021-1.239-30.438ZM410.08 228.624c-.147 3.886-.437 11.535-.437 11.925 0 .412-5.785 12.418-8.284 17.586l4.658-27.114a5.973 5.973 0 0 1 3.872-4.609c.156.726.221 1.469.191 2.212Z"/><path fill="#FFB7B7" d="M381.46 285.446a4.62 4.62 0 0 0-1.497-6.912l.947-10.498-6.224-2.133-1.129 14.844a4.644 4.644 0 0 0 1.869 5.869 4.62 4.62 0 0 0 6.034-1.17Z"/><path fill="#CBCBCB" d="m382.273 275.288-11.029-.401.467-53.316a7.196 7.196 0 0 1 4.864-6.85 6.51 6.51 0 0 1 4.102-.003 7.196 7.196 0 0 1 4.856 7.366l-3.26 53.204Z"/><path fill="#000" d="M479.024 382h-219.73c-.318 0-.576-.937-.576-2.092 0-1.156.258-2.092.576-2.092h219.73c.318 0 .577.936.577 2.092 0 1.155-.259 2.092-.577 2.092Z"/></svg>