<svg xmlns="http://www.w3.org/2000/svg" width="3525" height="1433"><path d="M1365.025 435.453h-180.147v-78.99h2.77v76.217h177.377Z"/><path d="M1643.273 641.547H1230.64V228.914h412.633Z"/><path fill="#646464" d="M1643.273 641.547H1230.64V228.914h412.633Zm-406.537-6.097h400.44V235.01h-400.44Z"/><path fill="#646464" d="M1315.72 406.3h264.634v9.341h-264.635ZM1315.72 430.588h264.634v9.342h-264.635ZM1315.72 454.876h264.634v9.342h-264.635ZM1305.753 412.339a6.097 6.097 0 1 1-12.194 0 6.097 6.097 0 0 1 12.194 0Z"/><path fill="#f0f0f0" d="M1315.72 301.64h264.634v9.343h-264.635ZM1315.72 325.93h264.634v9.341h-264.635ZM1315.72 350.218h264.634v9.342h-264.635ZM1305.753 306.664a6.097 6.097 0 1 1-12.194 0 6.097 6.097 0 0 1 12.194 0ZM1315.72 511.974h264.634v9.342h-264.635ZM1315.72 536.263h264.634v9.341h-264.635ZM1315.72 560.551h264.634v9.342h-264.635Z"/><path fill="#e5e5e5" d="M1305.753 516.997a6.097 6.097 0 1 1-12.194 0 6.097 6.097 0 0 1 12.194 0Z"/><path d="M1303.237 369.154h-240.09c-3.598-.01-6.513-5.972-6.518-13.334V177.205c0-7.36 2.92-13.321 6.517-13.334h240.091c3.597.01 6.512 5.972 6.517 13.334V355.82c-.005 7.36-2.925 13.326-6.517 13.335Z"/><path fill="#646464" d="M1303.237 369.154h-240.09c-3.598-.01-6.513-5.972-6.518-13.334V177.205c0-7.36 2.92-13.321 6.517-13.334h240.091c3.597.01 6.512 5.972 6.517 13.334V355.82c-.005 7.36-2.925 13.326-6.517 13.335Zm-240.09-199.95c-2.16 0-3.908 3.585-3.912 8.001v178.613c0 4.416 1.752 7.996 3.911 8.001h240.091c2.16 0 3.908-3.583 3.91-8V177.204c0-4.416-1.75-7.996-3.91-8Z"/><path fill="#646464" d="M1236.492 219.672a59.495 59.495 0 0 0-40.961-18.657v59.618Z"/><path fill="#e4e4e4" d="m1236.492 227.095-40.961 40.961h57.245a59.463 59.463 0 0 0-16.283-40.96Z"/><path fill="#f0f0f0" d="M1252.837 272.34a59.838 59.838 0 0 1-1.196 11.938 59.188 59.188 0 0 1-7.44 18.994v.003a59.853 59.853 0 0 1-11.982 14.175 59.411 59.411 0 0 1-36.69 14.508V272.34Z"/><path fill="#cacaca" d="M1189.74 332.01c.792 0 1.58-.02 2.365-.05v-59.621l-43.359 43.359a59.464 59.464 0 0 0 40.994 16.312Z"/><path fill="#fff" d="M1189.82 208.385a59.672 59.672 0 0 0-59.67 59.671h62.097v-59.618a60.644 60.644 0 0 0-2.426-.053Z"/><path fill="#d5d5d5" d="m1175.585 272.34-12.546 12.546-.41.41-.009.01-10.94 10.937-.416.416-11.82 11.82-.416.416v.002l-6.803 6.8a59.5 59.5 0 0 1-18.678-43.357Z"/><path d="M1201.506 369.262c0 8.419-6.824 15.243-15.243 15.243s-15.243-6.824-15.243-15.243 6.824-15.243 15.243-15.243 15.243 6.824 15.243 15.243ZM1702.487 1098.032s-15.5-38.154 31-66.77ZM1683.424 1097.338s-4.728-27.195-41.325-26.961ZM806.704 1134.6s-15.5-38.153 31-66.769ZM787.64 1133.907s-4.727-27.195-41.324-26.961ZM928.672 752.824c0 74.413-60.323 134.736-134.736 134.736-74.412 0-134.735-60.323-134.735-134.736 0-74.412 60.323-134.735 134.735-134.735 74.413 0 134.736 60.323 134.736 134.735Z"/><path d="M794.306 752.824h.371l6.663 381.999h-14.066ZM1239.826 839.635c0 54.274-43.998 98.272-98.272 98.272-54.274 0-98.272-43.998-98.272-98.272 0-54.274 43.998-98.272 98.272-98.272 54.274 0 98.272 43.998 98.272 98.272Z"/><path d="M1141.824 839.634h.27l4.86 278.62h-10.26ZM1151.456 493.376c0 123.498-100.114 223.612-223.612 223.612-123.498 0-223.613-100.114-223.613-223.612 0-123.498 100.115-223.612 223.613-223.612s223.612 100.114 223.612 223.612Z"/><path d="M927.23 493.375h-.615l-11.058 633.979h23.345ZM2539.566 97.463a52.812 52.812 0 0 1-20.164 33.03c-.808.62-1.65 1.209-2.5 1.772a801.4 801.4 0 0 0-74.715-71.841c.527-.859 1.075-1.7 1.658-2.523 14.242-20.404 40.753-28.163 63.748-18.66 22.995 9.505 36.292 33.717 31.973 58.222ZM2563.184 211.23l-.145.537a424719.65 424719.65 0 0 1-101.792-25.28c-24.513-6.087-49.847-12.556-69.703-28.168-7.54-5.921-14.596-13.297-23.964-15.374-11.618-2.586-23.28 3.803-32.819 10.93-56.4 42.203-83.784 117.112-144.888 152.143a1717.804 1717.804 0 0 1 162.179-218.272c11.035-12.63 23.829-25.94 40.502-27.754 15.908-1.737 30.258 7.425 42.733 18.133 2.673 2.297 5.258 4.668 7.748 7.008a1561.278 1561.278 0 0 1 55.624 54.938 1570.077 1570.077 0 0 1 64.525 71.159Z"/><path d="M2655.373 338.089a826.353 826.353 0 0 0-102.23-163.5 848.867 848.867 0 0 0-36.242-42.324 801.4 801.4 0 0 0-74.714-71.841 760.1 760.1 0 0 0-26.469-21.321c-6.977-5.347-14.512-10.441-23.47-11.433a33.394 33.394 0 0 0-18.231 3.554c-12.286 6.03-21.683 17.172-29.703 27.957-7.023 9.459-13.73 19.187-20.524 28.836-2.889 4.108-5.776 8.203-8.73 12.261a2313.37 2313.37 0 0 1-31.434 42.315 2290.775 2290.775 0 0 1-41.947 53.473 2300.854 2300.854 0 0 1-93.196 108.26 2312.459 2312.459 0 0 1-148.775 148.217c-6.36 5.773-8.77 6.95-15.194 12.66-1.488 1.34-3.263-1.225-1.79-2.555 53.583-47.655 100.96-93.252 149.872-145.71a2302.567 2302.567 0 0 0 106.375-122.475 2259.006 2259.006 0 0 0 32.306-40.873 2330.744 2330.744 0 0 0 50.31-67.7c4.315-6.02 8.602-12.071 12.86-18.152 13.525-19.298 33.333-48.048 60.864-42.756 8.097 1.553 15.053 6.17 21.522 11.065 6.587 5.002 13 10.212 19.39 15.48a598.511 598.511 0 0 1 7.622 6.374 796.854 796.854 0 0 1 29.386 26.063 832.995 832.995 0 0 1 46.173 46.528 854.312 854.312 0 0 1 20.622 23.33 829.914 829.914 0 0 1 107.916 162.05 764.68 764.68 0 0 1 10.348 21.142c.856 1.815-2.071 2.876-2.917 1.075ZM2558.598 159.626c1.92-1.505 3.829-3.012 5.758-4.515 15.214-11.836 31.329-23.343 50.235-28.333a64.636 64.636 0 0 1 27.758-1.48 77.28 77.28 0 0 1 26.625 10.922c3.875 2.4 7.62 5.01 11.28 7.73 4.18 3.119 8.252 6.376 12.3 9.65a609.955 609.955 0 0 1 22.358 18.987 606.576 606.576 0 0 1 41.679 40.925 588.454 588.454 0 0 1 20.003 22.786 606.75 606.75 0 0 1 17.541 22.046c1.215 1.594 3.763-.19 2.549-1.784a502.812 502.812 0 0 0-4.532-5.909 599.884 599.884 0 0 0-13.175-16.335 608.695 608.695 0 0 0-68.52-69.795 605.514 605.514 0 0 0-22.998-18.952 225.1 225.1 0 0 0-7.197-5.43 128.041 128.041 0 0 0-17.45-10.969 67.914 67.914 0 0 0-27.904-7.796 75.068 75.068 0 0 0-27.796 4.444c-18.858 6.567-34.787 19.056-50.297 31.25-1.567 1.24.205 3.797 1.783 2.558Z"/><path d="m2181.153 243.516-38.48-22.298-19.106-11.07a212.055 212.055 0 0 0-18.938-10.5 32.3 32.3 0 0 0-18.29-2.986 42.708 42.708 0 0 0-15.79 6.314 117.312 117.312 0 0 0-13.874 10.41c-5.39 4.56-10.722 9.186-16.071 13.792a8196.283 8196.283 0 0 0-131.24 115.454 8165.293 8165.293 0 0 0-72.745 66.182c-1.454 1.34-3.849-.656-2.374-2.014a8191.925 8191.925 0 0 1 215.04-191.167c4.71-4.042 9.388-8.144 14.417-11.793 9.232-6.699 20.246-12.115 31.957-10.25 6.885 1.097 13.145 4.447 19.117 7.88 6.438 3.7 12.852 7.444 19.276 11.167l38.75 22.453 9.687 5.613c1.72.997.403 3.82-1.336 2.813ZM2616.88 145.45c22.797-7.057 49.195-.233 66.037 16.576a968.628 968.628 0 0 0-112.994 6.193c16.335-6.065 30.312-17.616 46.957-22.77Z"/><path fill="#2a2a2b" d="m2683.13 162.025 3.447 3.98a60.484 60.484 0 0 0-3.66-3.98h.212Z"/><path d="M2068.473 223.802c4.918-4.215 10.206-8.604 16.615-9.538l5.615 1.22a651.266 651.266 0 0 1-205.265 165.176l183.035-156.858Z"/><filter id="a" width="3525" height="1433" x="0" y="0" color-interpolation-filters="sRGB" filterUnits="userSpaceOnUse" primitiveUnits="userSpaceOnUse"><feGaussianBlur stdDeviation="38.894"/><feOffset dx="-4.973" dy="-3.493" result="offsetblur"/><feFlood flood-color="#000" flood-opacity=".712"/><feComposite in2="offsetblur" operator="in"/><feMerge><feMergeNode/><feMergeNode in="SourceGraphic"/></feMerge></filter><path d="M1490.687 340.468h855.157v547.68h-855.157Z" filter="url(#a)"/><path fill="#fff" d="M1995.481 458.374a6.616 6.616 0 1 1-13.231 0 6.616 6.616 0 0 1 13.231 0Z"/><path fill="#e6e6e6" d="M1620.882 439.318h170.505v9.787h-170.505Z"/><path fill="#929292" d="M1620.882 475.02h243.849v9.788h-243.849Z"/><path fill="#e6e6e6" d="M1620.882 508.657h204.857v9.788h-204.857ZM1620.882 542.167h125.269v9.787h-125.269ZM1620.882 575.677h182.986v9.787h-182.986ZM1543.17 435.838h20.878v20.878h-20.878Z"/><path fill="#929292" d="M1543.17 469.475h20.878v20.878h-20.878Z"/><path fill="#e6e6e6" d="M1543.17 503.112h20.878v20.878h-20.878ZM1543.17 536.749h20.878v20.878h-20.878ZM1543.17 570.386h20.878v20.878h-20.878ZM1878.928 709.935a79.06 79.06 0 0 0-127.625-11.79l-5.088-4.446a85.803 85.803 0 0 1 138.528 12.794Z"/><path fill="#646464" d="m1882.112 797.955-5.607-3.77c16.95-25.279 17.891-58.04 2.423-84.25l5.815-3.442c16.795 28.454 15.773 64.02-2.63 91.462ZM1746.919 807.369c-28.901-32.278-29.203-81.037-.704-113.67l5.088 4.446c-26.253 30.063-25.975 74.98.649 104.716Z"/><path fill="#646464" d="M1810.851 835.948a85.943 85.943 0 0 1-63.932-28.58l5.033-4.507a79.057 79.057 0 0 0 124.553-8.676l5.608 3.77a85.755 85.755 0 0 1-71.262 37.993ZM1490.321 339.983h855.158v36.33h-855.158Z"/><path fill="#fff" d="M1524.053 358.557a6.733 6.733 0 1 1-13.467 0 6.733 6.733 0 0 1 13.467 0ZM1549.611 358.557a6.733 6.733 0 1 1-13.466 0 6.733 6.733 0 0 1 13.466 0ZM1575.17 358.557a6.734 6.734 0 1 1-13.467 0 6.734 6.734 0 0 1 13.467 0Z"/><path d="M1946.113 826.184h290.022V679.362h-290.022Z"/><path fill="#fff" d="M1998.184 728.768h29.544v2.462h-29.544ZM2037.576 728.768h29.544v2.462h-29.544ZM2094.817 751.542h29.544v2.462h-29.544ZM2134.825 751.542h29.543v2.462h-29.543ZM2077.583 728.768h86.785v2.462h-86.785ZM1998.184 751.542h86.785v2.462h-86.785ZM1998.184 774.315h86.785v2.462h-86.785ZM2104.05 774.315h60.318v2.462h-60.318ZM1989.88 739.162l-10.394-10.394 10.395-10.394 2.079 2.08-8.315 8.314 8.315 8.314ZM2192.368 787.17l-2.08-2.078 8.315-8.316-8.314-8.314 2.08-2.079 10.393 10.393ZM2175.27 786.198l6.156-20.31 2.815.852-6.156 20.311Z"/><path fill="#646464" d="M2275.743 427.802H1926.25c-15.53.022-28.113 10.156-28.14 22.664v126.959a17.34 17.34 0 0 0 .464 4.014c.11.604.286 1.19.463 1.776 3.291 9.933 14.449 16.85 27.213 16.873h349.493c.574 0 1.147-.018 1.698-.053h.397v-.018c.111.003.222-.003.331-.017.11 0 .243-.018.353-.018a.24.24 0 0 0 .11-.018l.706-.053c.397-.054.794-.09 1.169-.142a.454.454 0 0 1 .154-.018.528.528 0 0 1 .22-.036.094.094 0 0 1 .067-.017c.242-.036.485-.071.728-.125.134-.015.267-.039.396-.07.486-.09.97-.178 1.434-.303.22-.053.419-.088.64-.142.286-.07.595-.16.882-.248.15-.034.297-.075.44-.125a.125.125 0 0 0 .089-.035 22.62 22.62 0 0 0 1.874-.622c.53-.195 1.037-.408 1.544-.622.198-.07.375-.16.573-.248a.486.486 0 0 0 .133-.071c.507-.249 1.014-.498 1.5-.729.021-.017.021-.035.043-.035a.024.024 0 0 0 .016-.005.016.016 0 0 0 .006-.013 17.37 17.37 0 0 0 1.5-.852h.022a20.2 20.2 0 0 1 .353-.231c.154-.09.309-.196.441-.284.265-.178.53-.356.772-.533.15-.091.29-.192.419-.302.375-.267.727-.55 1.08-.835.188-.145.365-.3.53-.462.274-.212.532-.437.772-.675.22-.23.463-.462.683-.692.262-.243.505-.498.728-.764.397-.427.75-.853 1.102-1.315.287-.373.574-.763.839-1.154.132-.195.264-.409.397-.622.022 0 .022-.017.022-.035.242-.373.463-.746.661-1.137.088-.16.177-.302.243-.462.176-.302.308-.621.463-.941.242-.586.485-1.19.684-1.794.176-.586.352-1.172.462-1.776.312-1.323.467-2.667.464-4.014v-126.96c-.027-12.507-12.61-22.641-28.14-22.663Z"/><path fill="#fff" d="M1898.11 454.728h405.773v2.205H1898.11ZM1898.11 478.986h405.773v2.205H1898.11ZM1898.11 503.244h405.773v2.206H1898.11ZM1898.11 527.502h405.773v2.206H1898.11Z" opacity=".3"/><path fill-opacity=".1" d="M2303.883 536.897v34.138a26.525 26.525 0 0 1-.464 4.984c-.11.75-.286 1.477-.462 2.205-.199.75-.441 1.5-.684 2.227-.154.397-.287.794-.463 1.17-.066.198-.154.374-.243.572-.198.486-.419.949-.661 1.412 0 .022 0 .044-.022.044-.133.265-.265.53-.397.772-.265.485-.552.97-.838 1.433a21.26 21.26 0 0 1-1.103 1.632 9.9 9.9 0 0 1-.728.948c-.22.287-.463.574-.683.86-.24.295-.498.575-.772.838a6.247 6.247 0 0 1-.53.574c-.352.353-.705.705-1.08 1.036-.13.137-.27.262-.419.375-.243.22-.507.441-.772.662-.132.11-.287.242-.44.353-.111.088-.222.176-.354.286h-.022c-.48.38-.98.734-1.5 1.059a.022.022 0 0 1-.006.016.022.022 0 0 1-.016.006c-.022 0-.022.022-.044.044-.308.22-.64.419-.97.618-.177.11-.353.198-.53.286a.462.462 0 0 1-.132.088c-.198.11-.374.221-.573.31-.507.264-1.014.528-1.544.771-.61.29-1.236.547-1.874.772a.114.114 0 0 1-.088.044 3.508 3.508 0 0 1-.441.154c-.287.11-.596.22-.883.309-.22.066-.419.11-.64.176-.462.155-.947.265-1.432.375-.13.04-.263.07-.397.088-.243.067-.486.11-.728.155a.081.081 0 0 0-.066.022.436.436 0 0 0-.22.044.375.375 0 0 0-.155.022c-.375.066-.772.11-1.17.176-.22.023-.462.045-.705.067a.199.199 0 0 1-.11.022 73.55 73.55 0 0 0-.684.066h-.044c-.242.022-.485.022-.727.044-.442.022-.883.022-1.324.022H1926.25a28.23 28.23 0 0 1-27.213-20.95h-.618a18.24 18.24 0 0 1-.264-2.205c-.022-.42-.045-.86-.045-1.28v-38.46c4.63.137 9.22.886 13.651 2.228 11.997 3.66 23.663 9.857 36.189 9.857.992 0 2.029-.044 3.043-.132 13.188-1.103 23.442-9.284 31.977-18.524.683-.728 1.367-1.456 2.007-2.205 1.61-1.787 3.153-3.617 4.653-5.426a118.724 118.724 0 0 1 16.032-16.627c.949-.772 1.897-1.5 2.867-2.206a40.731 40.731 0 0 1 19.45-7.784 37.245 37.245 0 0 1 2.713-.177c9.439-.286 18.304 3.11 26.375 7.961a70.657 70.657 0 0 1 3.463 2.206 131.679 131.679 0 0 1 11.136 8.446 212.889 212.889 0 0 0 17.201 13.606c.442.31.883.618 1.324.882.683.464 1.39.905 2.095 1.324a50.967 50.967 0 0 0 19.935 7.52c.243.044.508.088.772.11 11.49 1.345 22.185-2.051 31.955-7.63a89.024 89.024 0 0 0 3.639-2.205 150.682 150.682 0 0 0 21.369-17.202c1.72-1.61 3.462-3.242 5.27-4.851.816-.728 1.632-1.478 2.47-2.206 13.1-11.511 28.206-22.053 46.047-22.053.75 0 1.521.023 2.293.067 12.835.617 24.104 6.836 33.565 14.73a102.936 102.936 0 0 1 7.872 7.256l.31.309a48.613 48.613 0 0 1 1.808 1.897c7.056 7.387 13.562 15.282 21.236 22.052.838.772 1.698 1.5 2.58 2.206a72.003 72.003 0 0 0 8.38 5.998c.684.42 1.39.816 2.096 1.191Z"/><path fill-opacity=".099" d="M2303.883 503.575v67.46a26.527 26.527 0 0 1-.464 4.984c-.11.75-.286 1.477-.462 2.205-.199.75-.441 1.5-.684 2.227-.154.397-.287.794-.463 1.169-.066.199-.154.375-.243.573-.198.486-.419.949-.661 1.412 0 .022 0 .044-.022.044-.133.265-.265.53-.397.772-.265.485-.552.97-.838 1.433a21.25 21.25 0 0 1-1.103 1.632c-.223.33-.466.647-.728.948-.22.287-.463.574-.683.86-.24.295-.498.575-.772.838a6.24 6.24 0 0 1-.53.574c-.352.353-.705.705-1.08 1.036-.13.137-.27.262-.419.375-.243.22-.507.441-.772.662-.132.11-.287.242-.44.353-.111.088-.222.176-.354.286h-.022c-.48.38-.98.734-1.5 1.059a.022.022 0 0 1-.006.016.022.022 0 0 1-.016.006c-.022 0-.022.022-.044.044-.308.22-.64.419-.97.617-.177.11-.353.199-.53.287a.46.46 0 0 1-.132.088c-.198.11-.374.22-.573.31-.507.264-1.014.528-1.544.77-.61.29-1.236.548-1.874.773a.114.114 0 0 1-.088.044 3.507 3.507 0 0 1-.441.154c-.287.11-.596.22-.883.309-.22.066-.419.11-.64.176-.462.155-.947.265-1.432.375-.13.04-.263.07-.397.088-.243.067-.486.11-.728.155a.081.081 0 0 0-.066.022.435.435 0 0 0-.22.044.374.374 0 0 0-.155.022c-.375.066-.772.11-1.17.176-.22.022-.462.045-.705.067a.199.199 0 0 1-.11.022c-.11 0-.243.022-.353.022-.11.018-.22.025-.33.022-.095.019-.191.026-.287.022h-.11c-.11.022-.243.022-.375.044-.442.022-.883.022-1.324.022H1926.25a28.23 28.23 0 0 1-27.213-20.95c-.177-.728-.353-1.456-.463-2.206a26.523 26.523 0 0 1-.464-4.983v-39.276a65.64 65.64 0 0 0 2.272-2.051c.772-.728 1.521-1.456 2.271-2.205a169.225 169.225 0 0 0 17.885-22.053c.177-.243.353-.464.507-.706a63.18 63.18 0 0 1 1.081-1.5 173.307 173.307 0 0 1 17.885-22.052c.75-.75 1.5-1.478 2.271-2.206 8.204-7.718 17.554-13.474 28.58-14.842 15.195-1.896 29.331 5.139 41.835 14.842.926.728 1.83 1.456 2.735 2.205 4.278 3.485 8.335 7.278 12.173 11.049 1.014 1.014 2.05 2.029 3.087 3.043a465.585 465.585 0 0 0 8.16 7.961c.794.75 1.565 1.478 2.36 2.206 11.026 10.21 22.956 19.186 37.136 22.052.97.199 1.963.375 2.955.508a49.366 49.366 0 0 0 16.099-.507 37.298 37.298 0 0 0 2.624-.574c13.276-3.286 25.581-11.556 36.718-21.48.794-.727 1.61-1.455 2.404-2.205 5.69-5.27 11.092-10.916 16.143-16.473a586.509 586.509 0 0 1 5.116-5.58 98.45 98.45 0 0 0 2.073-2.205 186.362 186.362 0 0 1 24.126-22.053 89.68 89.68 0 0 1 3.11-2.205c11.665-7.961 24.412-13.077 38.415-12.261 11.556.661 22.12 5.425 31.624 12.261.97.706 1.94 1.433 2.911 2.205a132.118 132.118 0 0 1 19.693 19.561c.684.816 1.367 1.654 2.051 2.492.353.42.684.86 1.037 1.28l.727.925c5.844 7.3 11.468 14.886 17.444 22.053Z"/><path fill-opacity=".104" d="M2303.478 475.667v95.123a26.481 26.481 0 0 1-.462 4.974c-.11.748-.286 1.474-.462 2.2a37.23 37.23 0 0 1-.682 2.223c-.154.397-.287.793-.463 1.167-.065.198-.154.374-.242.572a16.45 16.45 0 0 1-.66 1.409c0 .022 0 .044-.022.044-.132.264-.264.528-.396.77-.264.484-.55.968-.837 1.43a21.13 21.13 0 0 1-1.1 1.63c-.223.33-.465.645-.726.946-.22.286-.462.572-.683.858a9.11 9.11 0 0 1-.77.836 6.19 6.19 0 0 1-.528.573c-.352.352-.704.704-1.079 1.034a3.361 3.361 0 0 1-.418.374c-.242.22-.506.44-.77.66-.132.11-.286.242-.44.353-.11.088-.22.176-.352.286h-.022c-.48.379-.98.731-1.497 1.056a.021.021 0 0 1-.006.016.022.022 0 0 1-.016.006c-.022 0-.022.022-.044.044-.308.22-.638.418-.968.616-.177.11-.353.198-.529.287a.461.461 0 0 1-.132.087c-.198.11-.374.22-.572.309-.506.264-1.012.528-1.54.77-.61.289-1.235.546-1.871.77a.114.114 0 0 1-.088.044c-.143.061-.29.113-.44.154-.286.11-.595.22-.881.308-.22.066-.418.11-.638.176-.462.155-.946.265-1.43.375-.13.04-.263.069-.397.088a8.44 8.44 0 0 1-.726.154.08.08 0 0 0-.066.022.436.436 0 0 0-.22.044.373.373 0 0 0-.154.022c-.374.066-.77.11-1.167.176-.22.022-.462.044-.704.066a.198.198 0 0 1-.11.022c-.11 0-.242.022-.352.022a1.68 1.68 0 0 1-.33.022.078.078 0 0 1-.044.022h-.352c-.55.044-1.123.066-1.695.066h-348.797a28.174 28.174 0 0 1-27.159-20.909c-.176-.726-.352-1.452-.462-2.2a26.48 26.48 0 0 1-.462-4.975v-56.826a1942.35 1942.35 0 0 1 6.69-8.628c.573-.748 1.145-1.474 1.717-2.2 3.016-3.874 6.053-7.704 9.178-11.445 2.993-3.588 6.14-7.131 9.42-10.564.704-.727 1.408-1.475 2.135-2.201a122.333 122.333 0 0 1 28.457-22.01 67.362 67.362 0 0 1 4.358-2.2 68.005 68.005 0 0 1 24.892-6.493 69.131 69.131 0 0 1 32.881 6.493 61.86 61.86 0 0 1 4.556 2.2c10.762 5.547 20.865 13.316 30.328 22.01.815.704 1.585 1.452 2.377 2.2 7.505 7.043 14.614 14.592 21.393 22.01.506.55 1.012 1.122 1.519 1.672.154.176.33.352.484.528 6.602 7.263 13.645 14.614 21.128 21.437.198.198.419.374.639.572.814.748 1.628 1.475 2.464 2.201a170.63 170.63 0 0 0 9.068 7.505 117.999 117.999 0 0 0 23.704 14.504 71.482 71.482 0 0 0 5.414 2.2 65.088 65.088 0 0 0 31.605 3.742 62.968 62.968 0 0 0 14.327-3.741 71.43 71.43 0 0 0 5.172-2.201c11.159-5.282 21.239-13.271 30.79-22.009.793-.726 1.585-1.453 2.378-2.2 5.436-5.107 10.718-10.411 15.934-15.54 2.2-2.156 4.446-4.335 6.757-6.47.792-.726 1.606-1.452 2.42-2.2 2.774-2.488 5.635-4.93 8.584-7.242a110.262 110.262 0 0 1 23.594-14.767c.726-.33 1.475-.639 2.2-.925a70.08 70.08 0 0 1 3.368-1.276 59.021 59.021 0 0 1 15.032-3.258Z"/><path fill="#fff" d="M2093.278 512.917a6.616 6.616 0 1 1-13.232 0 6.616 6.616 0 0 1 13.232 0ZM2230.006 442.523a6.616 6.616 0 1 1-13.232 0 6.616 6.616 0 0 1 13.232 0Z"/><path d="M2069.281 1090.6c-4.093-57.896 4.22-121.796 32.604-170.804 12.067-20.834 27.273-38.125 44.323-48.388 19.668-11.839 40.63-13.587 60.558-11.337 43.331 4.892 83.904 26.61 128.2 24.924 19.875-.757 40.353-5.978 59.22-19.15 16.313-11.388 31.519-28.44 42.21-50.251 10.351-20.794 15.615-45.491 14.831-69.574-.832-22.79-7.392-44.943-19.867-57.62-11.335-11.518-26.945-14.062-41.283-8.002-15.424 6.52-28.223 22.797-33.718 45.221-6.855 27.974-2.349 57.302 3.764 82.45 5.884 24.205 13.93 47.292 24.958 66.801 10.68 18.896 24.246 34.544 40.448 42.984 15.372 8.007 32.913 10.062 49.874 4.034 17.503-6.246 33.554-21.45 45.095-42.717 12.832-23.385 20.226-51.49 24.002-79.535 4.46-33.12 4.542-66.54 5.073-99.508a5043.052 5043.052 0 0 0 .204-148.874c-.045-3.387-3.687-2.488-3.642.904.86 64.564.99 129.536-1.21 194.565-1.045 30.867-3.524 62.68-12.23 92.49-7.34 25.138-19.034 48.84-35.294 63.804-31.03 28.557-69.65 18.722-94.217-9.842-13.25-15.404-23.424-35.755-31.067-57.95-7.9-22.943-14.597-48.84-15.42-75.709-.426-13.873 1-28.407 5.75-41.524 3.662-10.09 9.208-18.682 15.918-24.66 12.584-11.319 28.39-13.733 41.128-7.437 14.353 7.093 23.55 25.622 26.814 47.001 3.334 22.572.516 47.146-7.891 68.811-8.854 22.87-22.999 41.458-38.599 54.198-17.757 14.503-37.394 21.33-56.712 23.286-43.34 4.387-83.33-15.481-125.029-22.864-19.003-3.365-38.885-4.045-58.372 3.217-17.369 6.533-33.763 19.513-47.506 37.612-30.107 39.418-45.027 95.386-47.274 150.18a396.258 396.258 0 0 0 .716 44.167c.235 3.326 3.878 2.45 3.641-.903Z"/><path d="M2055.633 1089.602h23.093v18.232h-23.093ZM2335.135 598.782h272.462c51.615 0 93.456-29.418 93.456-81.033 0-51.614-41.841-73.127-93.456-73.127h-85.55c-103.229 0-186.912 50.931-186.912 154.16Z"/><path fill="#fff" d="M2459.887 492.798h32.182v7.748h-32.182ZM2592.19 492.798h11.323v7.748h-11.323ZM2614.836 502.798h11.323v7.748h-11.323ZM2503.392 502.798h76.879v7.748h-76.879ZM2419.362 552.859h32.182v7.747h-32.182ZM2551.665 552.859h11.323v7.747h-11.323ZM2574.311 552.859h11.323v7.747h-11.323ZM2462.867 552.859h76.879v7.747h-76.88ZM2552.26 520.08h32.182v7.748h-32.181ZM2595.766 520.08h32.181v7.748h-32.181ZM2639.27 520.08h11.324v7.748h-11.323ZM2442.008 520.08h11.324v7.748h-11.324ZM2464.655 520.08h76.878v7.748h-76.878ZM2485.513 536.768h32.182v7.747h-32.182ZM2442.008 536.768h32.182v7.747h-32.182ZM2639.27 536.768h11.324v7.747h-11.323ZM2616.624 536.768h11.323v7.747h-11.323ZM2528.422 540.788h76.879v7.747h-76.879Z"/><path fill="#e6e6e6" d="m2294.001 691.847-1.471-7.358s-21.644-7.358-24.066 7.358Z"/><path fill="#ffb8b8" d="m2252.463 1096.969-14.19-.001-6.75-54.732 20.942.001Z"/><path fill="#232323" d="m2256.081 1110.723-45.753-.002v-.578c0-9.834 7.972-17.807 17.807-17.809h.002l27.945.002Z"/><path fill="#ffb8b8" d="m2301.245 1100.969 14.19-.001 6.75-54.732-20.942.001Z"/><path fill="#232323" d="m2298.357 1094.729 27.876 1.948h.001c9.811.687 17.209 9.196 16.523 19.007l-.04.577-45.642-3.19ZM2314.603 722.749l16.186-1.472 10.3 48.56-1.47 44.146-16.187 58.861-22.073-13.244 11.772-60.332Z"/><path fill="#232323" d="m2324.848 867.693-3.623 30.902 4.414 72.105v107.45l-27.959-1.5-5.886-111.837-16.187-51.502-11.772 58.86-7.357 110.365-28.695-2.3V971.783l-.736-79.075 10.3-30.901Z"/><path fill="#232323" d="M2264.571 693.318s10.3-14.715 29.43-4.414l8.83 11.772 27.959 20.601-5.887 69.162 7.358 86.82-104.478-1.472 17.658-86.82v-92.706Z"/><path fill-opacity=".248" d="m2321.225 745.702 8.437 100.883-10.645-54.675Z"/><path fill="#ffb8b8" d="M2244.476 896.019a10.853 10.853 0 0 0-2.925-16.383l3.146-24.6-14.484-5.559-3.954 34.804a10.912 10.912 0 0 0 18.217 11.738Z"/><path fill="#e6e6e6" d="M2249.856 871.372h-23.544v-10.3h23.544Z"/><path fill="#232323" d="m2260.892 708.77-15.45-12.509s-11.037-.735-12.509 15.451c-1.471 16.187-3.261 85.348-3.261 85.348l-5.568 69.162 30.902 1.471 5.886-74.856Z"/><path fill="#ffb8b8" d="M2295.12 620.843c14.32 7.828 19.583 25.782 11.755 40.102-7.828 14.32-25.782 19.583-40.102 11.755-14.32-7.828-19.582-25.782-11.754-40.102 7.828-14.32 25.782-19.583 40.102-11.755Z"/><path fill="#2a2a2a" d="M2278.74 672.838c14.977 3.595 30.241-4.746 35.305-19.292 5.063-14.547-1.722-30.563-15.695-37.045a35.05 35.05 0 0 0-16.55-2.97c-8.837.465-17.427 3.731-26.273 3.49l-1.282 2.062-4.832-1.172-1.036 3.836-1.273-.044c-2.28 4.237 1.389 10.304 6.2 10.252 1.905-.02 3.706-.814 5.569-1.213 1.862-.399 4.056-.3 5.34 1.107 1.67 1.829.943 4.682.595 7.133-.348 2.45.521 5.752 2.996 5.832 1.264.041 2.466-.865 3.708-.627 1.446.278 2.178 2.025 1.967 3.482a13.859 13.859 0 0 1-1.731 4.041c-3.587 7.16-.558 16.9 6.457 20.764"/><path d="m2512.675 1010.82 1.989 94.484 61.167 32.325 111.393-19.892 2.736-98.215-70.616-24.866Z"/><path fill="#cacaca" d="m2575.671 1138.65-61.972-32.75-2.02-95.918 107.76-16.327.23.08 71.287 25.102-2.777 99.722Zm-60.043-33.94 60.362 31.898 110.28-19.693 2.693-96.709-69.713-24.547-105.58 15.997Z"/><path fill="#cacaca" d="m2574.466 1036.437-.24-.095-61.912-24.616.72-1.815 61.675 24.52 115.117-15.877.268 1.935Z"/><path fill="#cacaca" d="m2573.61 1035.447 1.954-.024 1.244 102.194-1.954.024ZM2561.236 1029.322l-16.912-6.824 107.44-17.12 16.91 6.824ZM2512.288 1040.022l.773-1.794 25.885 11.145-.773 1.794Z"/><path fill="#fff" d="m2524.01 1072.256.772-1.794 25.885 11.144-.773 1.795Z"/><path fill="#d5d5d5" d="m2618.939 1005.774 2.31 109.683 71.004 37.523 129.31-23.091 3.175-114.013-81.973-28.864Z"/><path fill="#3f3d56" d="m2692.068 1154.164-71.94-38.017-2.344-111.345 125.09-18.953.267.093 82.754 29.14-3.224 115.76Zm-69.7-39.399 70.07 37.03 128.017-22.86 3.127-112.264-80.927-28.496-122.562 18.57Z"/><path fill="#3f3d56" d="m2690.669 1035.513-.278-.11-71.871-28.576.837-2.107 71.594 28.464 133.632-18.43.31 2.245Z"/><path fill="#3f3d56" d="m2689.676 1034.363 2.268-.028 1.443 118.63-2.268.028ZM2676.46 1027.305l-20.782-7.972 124.72-19.874 20.782 7.972ZM2618.49 1039.674l.897-2.083 30.048 12.938-.897 2.082Z"/><path fill="#fff" d="m2632.097 1077.092.897-2.082 30.048 12.937-.897 2.083Z"/><path fill="#929292" d="M1065.812 912.207a11.147 11.147 0 0 0-12.849 9.317l-4.36 28.61 14.834 3.934 10.868-26.656a11.147 11.147 0 0 0-8.493-15.205Z"/><path d="M1065.534 950.08c8.232 32.713 4.69 62.634-25.963 86.127-36.766-10.135-61.218-34.587-76.137-70.124a17.738 17.738 0 0 1 10.23-23.513 17.729 17.729 0 0 1 19.517 5.03l36.074 41.636 16.922-41.983Z"/><path fill="#d5d5d5" d="M1253.907 1121.708c-33.57-1.783-54.424-13.31-59.475-36.946l5.407-9.913 61.902 28.2a8.659 8.659 0 0 1-.608 16.01Z"/><path fill="#d5d5d5" d="M1227.967 1121.944c-17.442-.528-34.216-.364-50.11.712-5.802.397-10.844-3.949-11.307-9.746l-.954-11.928-13.517-21.627 11.715-11.715c19.687 19.608 41.277 36.077 66.92 45.867a4.624 4.624 0 0 1-2.747 8.437Z"/><path d="M1133.156 1037.002c-22.273 39.853-44.178 66.72-72.992 81.101-35.45 11.7-61.358-3.8-81.552-35.594l58.573-38.749 8.561 8.561 77.585-59.04a9.906 9.906 0 0 1 13.935.31l66.177 81.258-8.11 13.517Z"/><path d="m1152.98 1083.86-30.638-46.858 7.209-13.517 40.55 42.353Z"/><path fill="#929292" d="M1006.998 903.635c0 16.921-13.718 30.638-30.639 30.638-16.92 0-30.638-13.717-30.638-30.638s13.717-30.638 30.638-30.638 30.639 13.717 30.639 30.638Z"/><path fill="#929292" d="m984.47 960.406-34.243-11.715a42.529 42.529 0 0 0 6.308-27.033h27.935c-1.59 13.749-1.827 26.79 0 38.748Z"/><path d="M1057.46 1042.409c-5.133 2.107-5.508 8.941-10.362 11.264-23.465 11.227-48.29 20.336-65.332 36.495-39.823-27.043-76.735-111.034-28.836-147.785 16.35 9.568 30.955 16.414 30.638 0Z"/><path fill-opacity=".198" d="m987.127 1028.986-14.698-55.877c-1.023-3.681-2.68-1.815-5.06.742a17.72 17.72 0 0 0-29.739 12.216c-1.754 38.502 9.686 67.836 38.558 92.752 37.764-8.085 60.133-22.803 79.004-44.971l-13.37-12.155c1.203-3.844-54.695 7.293-54.695 7.293Z"/><path d="M980.482 863.331c10.106 2.309 21.609 5.58 22.254 8.621 10.396 2.62 18.243 8.895 19.845 18.462a5.73 5.73 0 0 1-5.748 6.644c-5.653-.073-14.14-.615-19.745-2.955-16.28 10.49-19.013 37.773-11.903 56.345l-11.188-1.026-11.575-33.884-2.957 32.552-25.531-3.375 3.288-41.51a61.845 61.845 0 0 1 9.713-27.424 23.356 23.356 0 0 1 1.827-2.368 32.45 32.45 0 0 1 31.72-10.082Z"/><path fill="#e6e6e6" d="m1047.668 1012.91 46.737-12.504 4.115-.975 2.934-.697 3.42-.809.027-.006a1.94 1.94 0 0 1 1.451.242l17.354 20.806c.157.096.295.22.408.366a.682.682 0 0 1 .124.13 1.98 1.98 0 0 1-1.117 3.093l-69.72 16.044a1.964 1.964 0 0 1-1.974-.697l-.708-.916-3.858-18.58-.275-2.412a1.924 1.924 0 0 1-.361-.759 1.953 1.953 0 0 1 1.443-2.325Z"/><path d="m1050.719 1036.985.711.92a1.963 1.963 0 0 0 1.97.697l69.722-16.046a1.977 1.977 0 0 0 1.115-3.09.592.592 0 0 0-.122-.13Z" opacity=".17"/><path fill="#e6e6e6" d="m1104.525 1003.127-1.261-68.83c-.053-.414.109-.828.45-1.15l8.934-14.398.928-.874c.345-.319.838-.52 1.373-.562l1.944-.14c1.116-.085 2.109.546 2.219 1.41l1.75 72.828.003.005.867 7.012 1.028 8.327.003.01 1.605 12.956c.061.448-.135.894-.537 1.221-.39.33-.947.515-1.526.506l-1.265-.02a2.424 2.424 0 0 1-1.314-.4l-.708-.493-.328-.232-13.494-16.153c-.383-.262-.623-.628-.67-1.023Z"/><path fill-opacity=".174" d="m1112.651 919.948 6.038 100.371.33.226.705.485c.363.247.829.388 1.315.397l1.267.02c.58.007 1.136-.175 1.53-.5.393-.326.587-.765.533-1.207l-5.26-99.954c-.107-.854-1.099-1.48-2.215-1.398l-1.948.143c-.535.037-1.027.238-1.367.556Z"/><path fill="#2f2e41" d="M1052.495 1012.547a1.754 1.754 0 0 0-1.052 2.245l4.637 14.713 3.297-1.193-4.637-14.713a1.754 1.754 0 0 0-2.245-1.052ZM1059.8 1010.458a1.754 1.754 0 0 0-1.206 2.166l.768 2.698 3.373-.96-.769-2.698a1.754 1.754 0 0 0-2.166-1.206ZM1066.545 1008.537a1.754 1.754 0 0 0-1.206 2.166l.768 2.699 3.373-.96-.768-2.699a1.754 1.754 0 0 0-2.167-1.206ZM1073.29 1006.616a1.754 1.754 0 0 0-1.206 2.167l.768 2.698 3.373-.96-.768-2.698a1.754 1.754 0 0 0-2.167-1.207ZM1080.036 1004.696a1.754 1.754 0 0 0-1.207 2.166l.769 2.698 3.372-.96-.768-2.698a1.754 1.754 0 0 0-2.166-1.206ZM1086.78 1002.775a1.754 1.754 0 0 0-1.205 2.167l.768 2.698 3.372-.96-.768-2.699a1.754 1.754 0 0 0-2.166-1.206ZM1093.526 1000.854a1.754 1.754 0 0 0-1.206 2.167l.768 2.698 3.373-.96-.769-2.698a1.754 1.754 0 0 0-2.166-1.207ZM1100.271 998.934a1.754 1.754 0 0 0-1.206 2.166l.768 2.698 3.373-.96-.768-2.698a1.754 1.754 0 0 0-2.167-1.206ZM1062.43 1016.609a1.754 1.754 0 0 0-1.205 2.166l.768 2.698 3.373-.96-.769-2.698a1.754 1.754 0 0 0-2.166-1.206ZM1069.176 1014.688a1.754 1.754 0 0 0-1.206 2.167l.768 2.698 3.373-.96-.768-2.699a1.754 1.754 0 0 0-2.167-1.206ZM1075.921 1012.768a1.754 1.754 0 0 0-1.206 2.166l.768 2.698 3.373-.96-.768-2.698a1.754 1.754 0 0 0-2.167-1.207ZM1082.667 1010.847a1.754 1.754 0 0 0-1.207 2.166l.769 2.699 3.372-.96-.768-2.699a1.754 1.754 0 0 0-2.166-1.206ZM1089.412 1008.926a1.754 1.754 0 0 0-1.206 2.167l.768 2.698 3.372-.96-.768-2.699a1.754 1.754 0 0 0-2.166-1.206ZM1096.157 1007.006a1.754 1.754 0 0 0-1.206 2.166l.768 2.698 3.373-.96-.769-2.698a1.754 1.754 0 0 0-2.166-1.206ZM1102.902 1005.085a1.754 1.754 0 0 0-1.206 2.166l.768 2.699 3.373-.96-.768-2.699a1.754 1.754 0 0 0-2.167-1.206ZM1065.062 1022.76a1.754 1.754 0 0 0-1.206 2.167l.768 2.698 3.373-.96-.769-2.699a1.754 1.754 0 0 0-2.166-1.206ZM1071.807 1020.84a1.754 1.754 0 0 0-1.206 2.166l.768 2.698 3.373-.96-.768-2.698a1.754 1.754 0 0 0-2.167-1.207ZM1078.552 1018.919a1.754 1.754 0 0 0-1.206 2.166l.769 2.698 3.372-.96-.768-2.698a1.754 1.754 0 0 0-2.167-1.206ZM1085.298 1016.998a1.754 1.754 0 0 0-1.207 2.167l.769 2.698 3.372-.96-.768-2.699a1.754 1.754 0 0 0-2.166-1.206ZM1092.043 1015.078a1.754 1.754 0 0 0-1.206 2.166l.768 2.698 3.373-.96-.769-2.698a1.754 1.754 0 0 0-2.166-1.207ZM1098.788 1013.157a1.754 1.754 0 0 0-1.206 2.166l.768 2.698 3.373-.96-.769-2.698a1.754 1.754 0 0 0-2.166-1.206ZM1105.533 1011.236a1.754 1.754 0 0 0-1.206 2.167l.768 2.698 3.373-.96-.768-2.699a1.754 1.754 0 0 0-2.167-1.206Z"/><path fill="#929292" d="M1066.573 1013.835a11.147 11.147 0 0 0-15.738-2.054l-22.819 17.799 8.078 13.047 26.208-11.908a11.148 11.148 0 0 0 4.27-16.884Z"/><path d="M1053.977 1035.063c-22.14 18.716-39.854 33.503-77.618 41.588-28.872-24.916-40.483-57.489-38.729-95.99a17.738 17.738 0 0 1 19.322-16.858 17.729 17.729 0 0 1 15.477 12.91l14.744 53.08 52.218-8.1Z"/><path fill="#2f2e41" d="M1595.214 181.625s36.003.979 41.95 3.142c5.945 2.163 8.604 17.633 8.604 17.633l-27.954 8.786-20.908-1.184-15.736 1.112 8.786-23.011Z"/><path fill="#9f616a" d="M1596.767 169.81s2.368 9.15-2.889 15.628 22.6 29.562 22.6 29.562l14.697-2.526s-3.24-28.112 1.112-35.23c4.35-7.119-35.52-7.433-35.52-7.433Z"/><path fill-opacity=".104" d="M1596.767 169.81s2.368 9.15-2.889 15.628 22.6 29.562 22.6 29.562l14.697-2.526s-3.24-28.112 1.112-35.23c4.35-7.119-35.52-7.433-35.52-7.433Z"/><path fill="#9f616a" d="m1694.505 437.305-32.426 43.001 22.129 12.92 30.456-49.83Z"/><path fill="#929292" d="M1671.76 481.031s-11.941-13.874-11.41-10.78c.532 3.094-8.496 29.332-.096 31.87 8.4 2.538 80.43 9.27 81.422 1.136.99-8.134-21.489-13.826-21.489-13.826s-13.354-12.835-16.315-11.53c-2.961 1.305-32.112 3.13-32.112 3.13Z"/><path fill="#9f616a" d="m1687.23 478.372 25.9 44.125 19.554-11.324-26.117-36.124Z"/><path fill="#d5d5d5" d="m1728.115 373.395-7.686 10.878s-36.644 50.893-32.752 55.002c3.891 4.11 20.098 19.64 28.34 16.63 8.243-3.01 37.527-55.027 37.527-55.027l-7.638-30.54Z"/><path fill="#d5d5d5" d="M1570.263 363.099s8.206 15.312 29.006 20.497c20.8 5.185 42.53 15.784 43.303 15.651.774-.133 2.961-1.305 3.493 1.789s6.237 8.484 6.237 8.484 22.975 78.074 31.749 78.158c8.774.085 26.806-6.2 27.18-8.653.376-2.453-26.866-82.183-27.132-83.73l-3.19-18.564s36.027 5.753 39.387 6.768c3.36 1.015 33.248 17.38 33.248 17.38s30.468-21.96 1.97-44.138c-28.499-22.177-77.482-38.445-77.482-38.445l-17.573-4.943-15.315-.914-2.255-8.647-36.272 2.093-37.853 16.062Z"/><path fill="#9f616a" d="M1646.388 159.768c0 15.604-12.65 28.253-28.254 28.253-15.604 0-28.254-12.65-28.254-28.253 0-15.605 12.65-28.254 28.254-28.254 15.604 0 28.254 12.65 28.254 28.254Z"/><path fill="#fff" d="m1592.573 182.477 3.398-.584s6.138 23.631 25.124 27.535c0 0 9.369-11.223 8.97-13.117-.4-1.894 7.419-11.997 11.576-6.341 4.158 5.656-1.015 105.291 2.478 107.08 3.493 1.789 10.986 3.686 4.955 10.297-6.03 6.61-29.985 15.506-35.29 12.436-5.306-3.07-16.147-29.078-20.836-37.828-4.69-8.75-12.195-38.517-12.195-38.517s-9.584-32.596-3.686-39.98c5.898-7.385 15.506-20.981 15.506-20.981Z"/><path d="M1619.613 305.138a161.188 161.188 0 0 1-3.236 20.633c-1.386 5.533-3 8.874-4.84 8.732-4.698-.352-6.834 6.539-7.935 14.483-1.176 8.427-1.176 18.042-1.822 21.44-.854 4.489-6.32 7.915-17.245 6.909a77.081 77.081 0 0 1-19-4.66c-14.75-5.363-14.313-48.85-11.845-81.118 1.51-19.78 3.777-35.354 3.777-35.354s-4.48-13.363-5.912-22.522a29.931 29.931 0 0 1-.427-5.058c.218-8.001 14.824-29.621 23.65-43.089 8.837-13.467 20.89-3.587 20.89-3.587l-4.195 12.66s6.501 10.032 6.549 19.58c.047 9.548 15.565 16.438 21.136 21.06 3.502 2.904 3.417 41.675.455 69.89ZM1631.882 186.471s1.018 1.204 5.68.616c5.591-.704 13.28 1.23 15.065 6.569 3.275 9.79 12.509 49.612 12.509 49.612s3.843 45.527 5.572 55.582c1.728 10.056.87 18.963 2.574 24.244 1.704 5.282-16.823-9.85-23.652-7.88-6.828 1.97-11.215-23.554-10.357-32.462.858-8.907 1.583-18.588-.786-27.736-2.369-9.15 1.83-33.363 1.674-38.91-.157-5.548-15.057-19.53-8.28-29.635Z"/><path fill="#f1f1f1" d="m1775.243 244.579 4.636 27.528c.052.307.018.622-.098.91l-36.371 90.881a1.694 1.694 0 0 1-3.267-.558l-1.54-36.52c-.01-.243.031-.485.123-.71l33.276-81.888a1.694 1.694 0 0 1 3.24.357Z"/><path fill="#f1f1f1" d="M1631.451 363.475c.794 3.1 105.059 6.456 106.14 5.519a21.97 21.97 0 0 0 2.508-3.88 152.693 152.693 0 0 0 2.104-3.91l-1.713-32.974-102.708-10.976s-4.544 27.518-5.97 40.16a30.373 30.373 0 0 0-.36 6.061Z"/><path fill-opacity=".1" d="m1727.052 331.72.009 28.408-45.427-3.23 2.01-28.266Z"/><path d="m1667.856 336.64.274-.034-2.145 12.077-25.237-1.794.861-12.115Z" opacity=".1"/><path fill-opacity=".099" d="M1631.451 363.475c.794 3.1 105.059 6.456 106.14 5.519a21.97 21.97 0 0 0 2.508-3.88l-108.288-7.7a30.373 30.373 0 0 0-.36 6.061Z"/><path fill="#9f616a" d="m1654.406 340.43 16.66 7.529c.138.323.293.64.466.948 1.512 2.671 4.161 4.613 7.288 5.343 3.14.741 6.468.175 9.132-1.554 4.951-3.19 6.39-9.454 3.28-14.277-3.112-4.822-9.69-6.528-14.998-3.889-.445.225-.873.478-1.28.758l-18.01-2.598Z"/><path fill="#929292" d="M1717.855 512.926s-7.312 8.423-9.125 7.142c-1.813-1.28-5.982 16.159-2.224 19.495 3.76 3.335 18.238 8.81 18.395 14.357.157 5.548 38.989 4.448 40.379-1.365 1.39-5.814-4.871-19.072-9.27-21.5-4.4-2.43-20.666-24.789-20.666-24.789s-12.74 1.862-17.49 6.66Z"/><path fill-opacity=".099" d="M1647.108 356.227c-6.937-4.897-26.308-6.112-43.506-7.241-7.545-.485-14.672-.959-20.149-1.728-5.277-.73-10.022-5.552-14.236-12.737-6.387-10.886-11.55-27.21-15.527-42.964 1.51-19.78 3.777-35.354 3.777-35.354s-4.48-13.363-5.912-22.522a12.052 12.052 0 0 1 3.815-3.435c18.241-7.83 35.657 69.226 37.868 81.317.038.2.067.39.095.55 1.073 6.227 12.661 11.55 23.044 13.658 6.397 1.3 12.348 1.386 15.09-.304 7.204-4.423 29.356 13.278 31.035 13.78 1.68.513-5.428 24.032-15.394 16.98Z"/><path d="M1555.373 225.502s-13.258 6.26-7.433 35.52c5.826 29.26 17.561 79.005 35.508 81.495 17.948 2.49 57.341-1.072 67.312 5.974 9.971 7.046 18.565-15.02 17.016-18.232-.762-1.58-29.568-10.371-36.31-9.533-8.389 1.042-36.403-3.3-38.131-13.355-1.729-10.055-19.422-89.833-37.962-81.869ZM1602.06 159.374c1.082-.289 1.242-1.727 1.278-2.847.194-5.998 3.806-12.153 9.548-13.9a16.055 16.055 0 0 1 6.767-.372 25.63 25.63 0 0 1 9.164 3.057c1.495.841 2.962 1.854 4.658 2.11 1.12.17 5.972 1.58 7.087 1.779 2.453.436 4.732 2.63 7.086 1.814 2.251-.781 2.75-3.697 2.804-6.08.124-5.428-3.997-12.94-7.626-16.979-2.755-3.064-6.902-4.479-10.956-5.214a72.939 72.939 0 0 0-14.328-.872c-6.489.116-13.157.617-19.007 3.424-5.85 2.807-10.765 8.394-11.045 14.878-.059 1.35.08 2.706-.033 4.053-.277 3.286-2.022 6.254-2.84 9.448a17.289 17.289 0 0 0 2.414 13.817c2.172 3.195 5.584 6.085 5.459 9.946l4.708-4.877a3.866 3.866 0 0 0 1.15-4.724l-1.667-6.5a5.864 5.864 0 0 1-.144-3.617c1.786-4.415 3.717 2.138 5.523 1.656Z"/><path fill="#e6e6e6" d="M1671.5 664.648h20.878v20.878H1671.5Z"/><path fill="#fca311" d="M1635.543 664.648h20.879v20.878h-20.879Z"/><path fill="#a0616a" d="M1602.551 692.446c0 15.554-12.61 28.164-28.164 28.164-15.554 0-28.164-12.61-28.164-28.164 0-15.555 12.61-28.164 28.164-28.164 15.555 0 28.164 12.61 28.164 28.164ZM1643.53 673.06c.277.22.546.454.807.702a12.616 12.616 0 0 1-.507 18.82c-.316.265-.647.514-.99.745l1.907 64.351a9.798 9.798 0 0 1-6.74 9.562l-.116.025-52.25 5.565a10.816 10.816 0 1 1-2.094-21.53l37.247-3.28 6.441-55.729a12.003 12.003 0 0 1-1.18-1.203 12.616 12.616 0 0 1 17.475-18.029ZM1620.773 1084.417h14.059l6.687-54.225h-20.749Z"/><path d="m1617.187 1079.827 27.686-.001a17.643 17.643 0 0 1 17.644 17.643v.574l-45.329.001Z"/><path fill="#a0616a" d="m1480.043 1066.98 12.079 7.191 33.489-43.169-17.828-10.614Z"/><path d="m1479.31 1061.202 23.788 14.163h.001a17.643 17.643 0 0 1 6.133 24.187l-.293.492-38.949-23.19Z"/><path fill="#d5d5d5" d="M1638.149 1065.265h-15.742a5.15 5.15 0 0 1-5.131-4.615l-15.87-149.18a1.72 1.72 0 0 0-3.279-.527l-28.63 63.396-50.689 82.654a5.185 5.185 0 0 1-6.477 2.024l-20.25-8.909a5.162 5.162 0 0 1-2.35-7.37l46.596-78.022 14.29-65.738c-4.494-28.508 14.774-70.892 14.97-71.318l.095-.207 53.076-20.745.266.326c20.931 68.69 33.686 142.611 24.268 253.503a5.195 5.195 0 0 1-5.143 4.728Z"/><path fill="#d5d5d5" d="m1563.544 834.4-.247-.52c-.119-.249-11.92-25.14-21.018-51.744A39.24 39.24 0 0 1 1545 750.69a39.669 39.669 0 0 1 25.297-19.453c19.137-4.587 38.747 5.532 46.099 23.786 7.216 18.046 4.916 37.308 2.752 52.456l-.043.303-.276.132Z"/><path fill="#929292" d="M1608.535 676.537h-44.72v-19.494c9.815-3.9 19.42-7.216 25.226 0 10.766 0 19.494 8.728 19.494 19.494Z"/><path fill="#929292" d="M1561.338 653.603c-26.735 0-34.218 33.511-34.218 52.417 0 10.543 4.768 14.314 12.261 15.59l2.646-14.113 6.198 14.72c2.104.01 4.316-.03 6.608-.073l2.101-4.326 4.686 4.249c18.767.028 33.936 2.763 33.936-16.047 0-18.906-6.563-52.417-34.218-52.417Z"/><path fill="#262627" d="M1690.396 699.484h-52.264c-6.374-.007-11.54-5.173-11.547-11.547v-52.264c.008-6.374 5.173-11.54 11.547-11.547h52.264c6.374.007 11.54 5.173 11.547 11.547v52.264c-.007 6.374-5.173 11.54-11.547 11.547Z"/><path fill="#3f3d56" d="M1690.396 699.484h-52.264c-6.374-.007-11.54-5.173-11.547-11.547v-52.264c.008-6.374 5.173-11.54 11.547-11.547h52.264c6.374.007 11.54 5.173 11.547 11.547v52.264c-.007 6.374-5.173 11.54-11.547 11.547Zm-52.264-72.927a9.126 9.126 0 0 0-9.116 9.116v52.264a9.126 9.126 0 0 0 9.116 9.116h52.264a9.126 9.126 0 0 0 9.116-9.116v-52.264a9.126 9.126 0 0 0-9.116-9.116Z"/><path fill="#fff" d="M1681.28 678.214h-34.032a3.65 3.65 0 0 1-3.646-3.647v-25.524a3.65 3.65 0 0 1 3.646-3.646h9.58a3.623 3.623 0 0 1 3.106 1.734l2.672 4.343h18.674a3.65 3.65 0 0 1 3.647 3.646v19.447a3.65 3.65 0 0 1-3.646 3.647Z"/><path fill="#a0616a" d="M1680.173 691.108c.17.312.327.632.472.961a12.617 12.617 0 0 1-7.77 17.148c-.395.122-.796.223-1.201.303l-23.215 60.05a9.798 9.798 0 0 1-9.922 6.197l-.116-.022-50.316-15.147a10.815 10.815 0 1 1 6.425-20.655l35.601 11.43 27.562-48.863a11.997 11.997 0 0 1-.621-1.567 12.616 12.616 0 0 1 23.101-9.835Z"/><path fill-rule="evenodd" stroke="#000" stroke-linecap="round" stroke-linejoin="round" stroke-width=".5" d="M0 1437h3525v-122l-810.198-122.078H0Z"/><path fill="#aaa" fill-rule="evenodd" d="M3530.303 1300.081C1930.437 934.705 1120.513 1175.16-.834 1153.827c-14.343-.273-13.383 41.775.908 43.028 484.17 42.45 2103.388-221.337 3530.23 153.313Z"/><path fill="#666" fill-rule="evenodd" d="M3530.448 1338.642C1929.252 972.962 1118.655 1213.617-3.625 1192.266c-14.355-.273-13.394 41.81.909 43.064 484.573 42.484 2105.137-221.52 3533.164 153.44Z"/><path fill="#333" fill-rule="evenodd" d="M3530.382 1374.842C1929.791 1009.299 1119.5 1249.864-2.355 1228.522c-14.35-.274-13.39 41.793.908 43.047 484.39 42.468 2104.342-221.437 3531.83 153.382Z"/></svg>