<?xml version="1.0" encoding="UTF-8"?>
<!-- Generated by Pixelmator Pro 3.6.14 -->
<svg width="3840" height="1140" viewBox="0 0 3840 1140" xmlns="http://www.w3.org/2000/svg">
    <path id="DEV-HARBOR-copy" fill="#ffffff" fill-rule="evenodd" stroke="none" d="M 3600.51123 967.512939 L 3670.976074 1042.020508 L 3789.957275 1042.020508 L 3696.967041 942.677124 C 3757.035156 914.953369 3794 858.350708 3794 780.9552 C 3794 687.387573 3716.604736 611.724792 3615.52832 611.724792 L 3465.935791 611.724792 L 3465.935791 1042.020508 L 3555.460449 1042.020508 L 3555.460449 967.512939 Z M 3555.460449 886.651978 L 3555.460449 692.585754 L 3609.752686 692.585754 C 3672.131348 692.585754 3703.898193 735.326538 3703.898193 787.886169 C 3703.898193 847.954346 3668.088135 886.651978 3604.554443 886.651978 Z M 3179.457031 1049.529053 C 3302.481445 1049.529053 3401.824463 949.608032 3401.824463 826.583923 C 3401.824463 703.559814 3302.481445 604.216309 3178.87915 604.216309 C 3055.855225 604.216309 2956.511719 703.559814 2956.511719 826.583923 C 2956.511719 949.608032 3055.855225 1049.529053 3179.457031 1049.529053 Z M 3178.87915 689.697876 C 3251.654297 689.697876 3309.989746 750.921143 3309.989746 826.583923 C 3309.989746 903.401794 3252.231934 963.46991 3179.457031 963.46991 C 3105.5271 963.46991 3048.346924 903.401794 3048.346924 826.583923 C 3048.346924 750.921143 3105.5271 689.697876 3178.87915 689.697876 Z M 2757.824951 1042.020508 C 2836.953369 1042.020508 2910.30542 991.193665 2910.30542 903.401794 C 2910.30542 861.816162 2890.667725 824.851196 2851.970459 798.282593 C 2872.762939 779.222473 2882.581787 755.541809 2882.581787 725.50769 C 2882.581787 645.224365 2825.401611 611.724792 2745.695557 611.724792 L 2607.654541 611.724792 L 2607.654541 1042.020508 Z M 2697.179199 961.159607 L 2697.179199 850.264587 L 2760.712646 850.264587 C 2797.677734 850.264587 2818.470459 871.63501 2818.470459 906.289673 C 2818.470459 939.789185 2797.677734 961.159607 2760.712646 961.159607 Z M 2697.179199 772.291504 L 2697.179199 692.585754 L 2742.230225 692.585754 C 2767.066162 692.585754 2790.74707 699.516724 2790.74707 732.438721 C 2790.74707 750.343567 2785.548828 772.291504 2742.230225 772.291504 Z M 2352.36499 967.512939 L 2422.82959 1042.020508 L 2541.810791 1042.020508 L 2448.820557 942.677124 C 2508.888916 914.953369 2545.85376 858.350708 2545.85376 780.9552 C 2545.85376 687.387573 2468.458252 611.724792 2367.38208 611.724792 L 2217.789307 611.724792 L 2217.789307 1042.020508 L 2307.313965 1042.020508 L 2307.313965 967.512939 Z M 2307.313965 886.651978 L 2307.313965 692.585754 L 2361.606445 692.585754 C 2423.984863 692.585754 2455.751709 735.326538 2455.751709 787.886169 C 2455.751709 847.954346 2419.94165 886.651978 2356.407959 886.651978 Z M 2082.635986 1042.020508 L 2180.246582 1042.020508 L 1952.68103 604.216309 L 1725.692749 1042.020508 L 1818.105225 1042.020508 L 1845.828979 984.262756 L 2054.334717 984.262756 Z M 1949.215454 769.403687 L 2015.059448 903.401794 L 1884.526733 903.401794 Z M 1311.569214 611.724792 L 1311.569214 1042.020508 L 1401.093872 1042.020508 L 1401.093872 853.730103 L 1598.625488 853.730103 L 1598.625488 1042.020508 L 1688.150146 1042.020508 L 1688.150146 611.724792 L 1598.625488 611.724792 L 1598.625488 772.869141 L 1401.093872 772.869141 L 1401.093872 611.724792 Z M 1322.510498 95.446289 L 1322.510498 525.742004 L 1497.516724 525.742004 C 1621.118408 525.742004 1722.194702 433.907104 1722.194702 310.305359 C 1722.194702 187.858765 1621.118408 95.446289 1496.939209 95.446289 Z M 1412.035156 444.881042 L 1412.035156 176.30719 L 1496.939209 176.30719 C 1572.024292 176.30719 1630.359741 232.332336 1630.359741 310.305359 C 1630.359741 387.700806 1572.024292 444.881042 1497.516724 444.881042 Z M 2153.645508 95.446289 L 2284.178223 347.847961 L 2407.202393 95.446289 L 2499.614746 95.446289 L 2280.712891 533.250488 L 2050.83667 95.446289 L 2153.645508 95.446289 Z M 2053.146973 444.881042 L 2053.146973 525.742004 L 1786.305786 525.742004 L 1786.305786 95.446289 L 2015.026733 95.446289 L 2015.026733 176.30719 L 1875.830444 176.30719 L 1875.830444 256.590576 L 2037.552246 256.590576 L 2037.552246 337.451538 L 1875.830444 337.451538 L 1875.830444 444.881042 L 2053.146973 444.881042 Z"/>
    <path id="Ellipse-copy" fill="#ffffff" fill-rule="evenodd" stroke="none" d="M 586.691589 1089.058838 C 576.792969 1089.614136 566.821228 1089.89563 556.783691 1089.89563 C 266.558075 1089.89563 31.28371 854.621216 31.28371 564.395569 C 31.28371 274.169922 266.558075 38.89563 556.783691 38.89563 C 715.149292 38.89563 857.153137 108.948242 953.498169 219.756348 C 944.033569 223.365417 762.019653 292.967957 738.054932 317.14325 C 720.611633 334.740112 731.631592 370.264709 761.783447 381.347229 C 791.253723 392.178955 1078.716919 504.94989 1078.716919 504.94989 C 1078.716919 504.94989 1078.71814 504.02832 1078.646851 502.243835 C 1081.048584 522.626892 1082.283691 543.366943 1082.283691 564.395569 C 1082.283691 807.789307 916.812683 1012.535278 692.229187 1072.274902 C 692.100769 921.795044 691.922913 634.975342 692.319885 532.294922 C 692.414001 507.952454 586.222778 606.607056 586.506531 655.941956 C 587.192993 775.264648 586.918091 978.143127 586.691589 1089.058838 Z M 434.325562 459.771179 C 427.102814 459.771179 421.247498 465.626465 421.247498 472.849182 C 421.247498 480.07196 427.102814 485.927246 434.325562 485.927246 L 679.241882 485.927246 C 686.4646 485.927246 692.319885 480.07196 692.319885 472.849182 C 692.319885 465.626465 686.4646 459.771179 679.241882 459.771179 L 434.325562 459.771179 Z M 590.442505 413.403503 C 578.50647 339.915649 514.752136 283.81189 437.892303 283.81189 C 432.5159 283.81189 427.20462 284.088806 421.969696 284.624634 C 450.2005 254.146423 490.56308 235.066406 535.38324 235.066406 C 620.743591 235.066406 689.942078 304.264893 689.942078 389.625244 C 689.942078 397.711487 688.123901 413.403503 688.123901 413.403503 L 590.442505 413.403503 Z M 556.783691 214.854858 C 554.157288 214.854858 552.028076 212.725647 552.028076 210.099182 L 552.028076 180.376343 C 552.028076 177.749939 554.157288 175.620728 556.783691 175.620728 C 559.410156 175.620728 561.539368 177.749939 561.539368 180.376343 L 561.539368 210.099182 C 561.539368 212.725647 559.410156 214.854858 556.783691 214.854858 Z"/>
</svg>
