<svg xmlns="http://www.w3.org/2000/svg" width="3840" height="1140"><path fill="#fff" fill-rule="evenodd" d="m3600.511 967.513 70.465 74.508h118.981l-92.99-99.344c60.068-27.724 97.033-84.326 97.033-161.722 0-93.567-77.395-169.23-178.472-169.23h-149.592v430.296h89.524v-74.508Zm-45.05-80.861V692.586h54.292c62.378 0 94.145 42.74 94.145 95.3 0 60.068-35.81 98.766-99.344 98.766Zm-376.004 162.877c123.024 0 222.367-99.921 222.367-222.945 0-123.024-99.343-222.368-222.945-222.368-123.024 0-222.367 99.344-222.367 222.368s99.343 222.945 222.945 222.945Zm-.578-359.831c72.775 0 131.11 61.223 131.11 136.886 0 76.818-57.757 136.886-130.532 136.886-73.93 0-131.11-60.068-131.11-136.886 0-75.663 57.18-136.886 130.532-136.886Zm-421.054 352.323c79.128 0 152.48-50.827 152.48-138.62 0-41.585-19.637-78.55-58.335-105.118 20.793-19.06 30.612-42.741 30.612-72.775 0-80.284-57.18-113.783-136.886-113.783h-138.041v430.296Zm-60.646-80.861V850.265h63.534c36.965 0 57.757 21.37 57.757 56.025 0 33.5-20.792 54.87-57.757 54.87Zm0-188.868v-79.706h45.051c24.836 0 48.517 6.93 48.517 39.853 0 17.905-5.198 39.853-48.517 39.853Zm-344.814 195.22 70.465 74.509h118.98l-92.99-99.344c60.069-27.724 97.034-84.326 97.034-161.722 0-93.567-77.396-169.23-178.472-169.23H2217.79v430.296h89.525v-74.508Zm-45.051-80.86V692.586h54.292c62.379 0 94.146 42.74 94.146 95.3 0 60.068-35.81 98.766-99.344 98.766Zm-224.678 155.369h97.61l-227.565-437.805-226.988 437.805h92.412l27.724-57.758h208.506Zm-133.42-272.617 65.843 133.998h-130.532Zm-637.647-157.68v430.297h89.525V853.73h197.531v188.29h89.525V611.725h-89.525v161.144h-197.531V611.725Zm10.941-516.278v430.296h175.007c123.601 0 224.678-91.835 224.678-215.437 0-122.446-101.077-214.859-225.256-214.859Zm89.525 349.435V176.307h84.904c75.085 0 133.42 56.025 133.42 133.998 0 77.396-58.335 134.576-132.842 134.576Zm741.61-349.435 130.533 252.402 123.024-252.402h92.413L2280.713 533.25 2050.837 95.446h102.809Zm-100.498 349.435v80.861h-266.841V95.446h228.72v80.861H1875.83v80.284h161.722v80.86H1875.83v107.43h177.317ZM586.692 1089.059c-9.899.555-19.87.837-29.908.837-290.226 0-525.5-235.275-525.5-525.5 0-290.226 235.274-525.5 525.5-525.5 158.365 0 300.37 70.052 396.714 180.86-9.464 3.61-191.478 73.212-215.443 97.387-17.443 17.597-6.423 53.122 23.728 64.204 29.47 10.832 316.934 123.603 316.934 123.603s.001-.922-.07-2.706a530.967 530.967 0 0 1 3.637 62.152c0 243.393-165.471 448.14-390.055 507.879-.128-150.48-.306-437.3.09-539.98.095-24.343-106.096 74.312-105.812 123.647.686 119.323.411 322.201.185 433.117ZM434.326 459.77c-7.223 0-13.079 5.855-13.079 13.078 0 7.223 5.856 13.078 13.079 13.078h244.916c7.223 0 13.078-5.855 13.078-13.078 0-7.223-5.855-13.078-13.078-13.078H434.326Zm156.117-46.367c-11.937-73.488-75.69-129.592-152.55-129.592-5.377 0-10.688.277-15.923.813 28.23-30.479 68.593-49.559 113.413-49.559 85.36 0 154.56 69.199 154.56 154.56 0 8.085-1.82 23.778-1.82 23.778h-97.68Zm-33.66-198.55a4.756 4.756 0 0 1-4.755-4.755v-29.723a4.756 4.756 0 0 1 9.511 0V210.1a4.756 4.756 0 0 1-4.755 4.756Z"/></svg>