<?xml version="1.0" encoding="UTF-8"?>
<!-- Generated by Pixelmator Pro 3.7.1 -->
<svg width="1055" height="852" viewBox="0 0 1055 852" xmlns="http://www.w3.org/2000/svg">
    <path id="Path" fill="#2a2a2b" stroke="none" d="M 752.666504 821.834106 C 752.666504 826.771179 640.601746 830.773499 502.362854 830.773499 C 364.123932 830.773499 252.059158 826.771179 252.059158 821.834106 C 252.059158 816.896973 364.123932 812.894653 502.362854 812.894653 C 640.601746 812.894653 752.666504 816.896973 752.666504 821.834106 Z"/>
    <path id="path1" fill="#6a6a6a" stroke="none" d="M 475.244751 332.832458 C 475.244751 382.296844 435.145966 422.39563 385.68161 422.39563 C 336.217255 422.39563 296.1185 382.296844 296.1185 332.832458 C 296.1185 283.368103 336.217255 243.269348 385.68161 243.269348 C 435.145966 243.269348 475.244751 283.368103 475.244751 332.832458 Z"/>
    <path id="path2" fill="#2a2a2b" stroke="none" d="M 355.644348 791.425781 C 355.644348 795.268677 321.848206 798.383911 280.1586 798.383911 C 238.468964 798.383911 204.672836 795.268677 204.672836 791.425781 C 204.672836 787.582947 238.468964 784.467712 280.1586 784.467712 C 321.848206 784.467712 355.644348 787.582947 355.644348 791.425781 Z"/>
    <path id="path3" fill="#000000" stroke="none" d="M 417.676331 822.445618 C 417.676331 822.445618 480.327759 655.375061 445.789185 552.562378 C 411.250549 449.749756 383.940918 453.765869 383.940918 453.765869 C 383.940918 453.765869 337.353943 441.717529 279.521851 477.059357 C 221.689774 512.401245 206.428513 522.84314 173.496323 508.385101 C 140.564148 493.927094 134.138321 471.436798 53.81599 473.846466 C 53.81599 473.846466 96.386833 450.552979 138.15448 471.436798 C 179.922119 492.320587 208.034958 503.565765 250.605789 471.436798 C 293.176636 439.307831 351.811981 397.540192 408.840881 422.440186 C 408.840881 422.440186 367.073242 381.475769 353.418427 381.475769 C 339.763641 381.475769 275.505737 375.049988 254.621933 353.362946 C 254.621933 353.362946 224.902634 332.479126 171.889923 383.885468 C 118.87719 435.291779 131.728729 435.291779 84.338524 431.275665 C 36.94833 427.259552 4e-06 403.966003 4e-06 403.966003 C 4e-06 403.966003 55.422428 426.456268 89.157829 415.211121 C 122.893227 403.966003 151.80928 361.395142 181.528564 346.937134 C 211.247849 332.479126 228.918777 313.201782 269.079926 334.085571 C 269.079926 334.085571 252.212265 265.008301 220.083298 270.63092 C 187.954361 276.253479 235.344559 254.566406 235.344559 254.566406 C 235.344559 254.566406 226.509079 137.295776 209.641403 129.263489 C 192.773697 121.231262 203.215591 100.347534 171.889877 96.33136 C 171.889877 96.33136 210.444626 91.511963 217.67363 118.018311 C 224.902634 144.524658 274.702484 287.498535 274.702484 287.498535 C 274.702484 287.498535 305.225006 348.543549 338.960388 334.085571 C 372.695801 319.627563 326.108826 238.501953 326.108826 238.501953 L 268.276733 211.995544 C 268.276733 211.995544 311.650818 210.389099 338.157196 235.289001 C 364.663574 260.188965 366.27002 340.511322 366.27002 340.511322 C 366.27002 340.511322 432.937592 350.149994 449.002014 386.295074 C 449.002014 386.295074 459.443909 354.166138 439.363342 334.888794 C 434.34317 330.069458 429.072021 321.685791 423.989136 311.821167 C 404.551117 274.096985 397.956818 231.094727 404.071808 189.099976 C 407.064178 168.549744 408.905792 148.456238 405.62793 143.721497 C 398.398926 133.279602 367.876404 69.021729 365.466736 52.153992 C 363.057068 35.286316 367.876404 -0.055542 367.876404 -0.055542 C 367.876404 -0.055542 368.679626 43.318542 378.318329 56.973328 C 387.957031 70.628174 415.266632 138.098938 415.266632 138.098938 C 415.266632 138.098938 415.266632 223.240662 437.756866 265.008301 C 460.247131 306.77594 503.621216 353.362885 501.211548 383.885406 L 501.211548 401.556335 C 501.211548 401.556335 549.404968 355.772583 546.192078 340.511322 C 542.979187 325.250122 538.963074 289.105042 508.440552 267.417969 C 477.91803 245.730957 457.837524 211.192322 479.524536 161.392456 C 501.211609 111.59259 501.211548 102.75708 501.211548 102.75708 L 486.75354 164.605347 C 486.75354 164.605347 478.721313 220.027771 501.211548 239.305115 C 523.701782 258.58252 553.421082 293.924377 553.421082 293.924377 L 546.9953 178.260132 L 567.87915 224.043884 C 567.87915 224.043884 612.85968 166.211792 665.872437 146.934387 C 718.885193 127.657043 751.817383 60.186218 751.817383 60.186218 L 796.797913 24.84436 L 759.849609 69.021729 C 759.849609 69.021729 748.604492 121.231262 685.149841 158.179565 C 621.69519 195.127869 580.730713 249.74707 578.321106 283.482483 C 575.911438 317.217834 573.501709 346.937103 573.501709 346.937103 C 573.501709 346.937103 692.378845 342.92099 718.885193 290.711487 C 745.391602 238.501892 747.80127 134.886047 773.504456 118.018372 C 799.207581 101.150635 847.401001 80.266846 847.401001 80.266846 L 793.585022 124.444153 C 793.585022 124.444153 782.339905 160.589233 784.749573 186.292358 C 787.159241 211.995544 767.078674 236.092224 767.078674 236.092224 L 751.817383 281.072754 L 734.949707 319.627502 C 734.949707 319.627502 804.026978 321.233948 840.172058 362.198364 C 876.317078 403.162781 966.278198 415.211121 966.278198 415.211121 L 915.675049 428.865936 C 915.675049 428.865936 867.481628 412.801453 821.697876 383.082184 C 775.914124 353.362946 780.733459 326.856567 723.70459 356.575806 C 666.675659 386.295105 588.763 411.195038 588.763 411.195038 C 588.763 411.195038 633.74353 390.311188 714.86908 440.914276 C 795.99469 491.517365 674.707947 432.078827 638.562866 451.356201 C 602.417786 470.633575 585.55011 446.536865 571.092041 494.730255 C 556.634033 542.923706 530.127625 674.652405 560.650146 748.549011 L 591.172668 822.445618 Z"/>
    <path id="path4" fill="#ffffff" stroke="none" opacity="0.1" d="M 720.103638 290.711426 C 698.569092 333.128174 616.065491 343.734955 585.873169 346.221649 C 585.02655 357.110321 584.468262 363.996246 584.468262 363.996246 C 584.468262 363.996246 703.345398 359.980103 729.851746 307.770569 C 756.358032 255.561035 758.767822 151.94519 784.471069 135.077454 C 787.19696 133.288574 790.177734 131.454346 793.325195 129.604797 C 794.20813 126.362915 794.803528 124.444153 794.803528 124.444153 L 848.619568 80.266846 C 848.619568 80.266846 800.426208 101.150635 774.723022 118.018311 C 749.019775 134.886047 746.610107 238.501892 720.103638 290.711426 Z"/>
    <path id="path5" fill="#ffffff" stroke="none" opacity="0.1" d="M 581.587891 209.564941 C 581.412476 229.340942 578.845764 241.102966 578.845764 241.102966 C 578.845764 241.102966 623.807495 183.295593 676.805786 164.005981 C 679.938049 162.024414 683.115784 160.073425 686.368225 158.179504 C 749.822937 121.231201 761.068115 69.021667 761.068115 69.021667 L 798.016418 24.84436 L 753.035828 60.186218 C 753.035828 60.186218 720.103638 127.657043 667.091064 146.934387 C 630.9552 160.074646 598.557312 191.124023 581.587891 209.564941 Z"/>
    <path id="path6" fill="#ffffff" stroke="none" opacity="0.1" d="M 512.178162 400.944519 L 512.178162 418.615448 C 512.178162 418.615448 560.371643 372.831726 557.15863 357.570435 C 554.701599 345.8992 551.759827 322.01825 536.866394 301.726318 C 543.579651 317.061279 545.622925 332.019531 547.410522 340.511292 C 549.714539 351.455048 525.585388 378.092621 511.747742 392.289459 C 512.233154 395.147278 512.377686 398.052643 512.178162 400.944519 Z"/>
    <path id="path7" fill="#ffffff" stroke="none" opacity="0.1" d="M 447.531128 279.677551 C 447.912781 280.491638 448.306396 281.292664 448.72345 282.067444 C 461.040649 304.942139 479.610291 329.25769 493.503967 351.592865 C 482.275024 329.473999 462.733337 304.180725 447.531128 279.677551 Z"/>
    <path id="path8" fill="#ffffff" stroke="none" opacity="0.1" d="M 486.690186 245.481506 C 480.212952 229.610962 479.145752 210.726501 486.587097 188.597351 C 486.493958 180.577637 486.956726 172.561096 487.972107 164.605347 L 500.619629 110.502014 C 498.287781 118.30426 492.952515 133.356018 480.742981 161.392456 C 465.286377 196.885498 471.054993 224.6203 486.690186 245.481506 Z"/>
    <path id="path9" fill="#ffffff" stroke="none" opacity="0.1" d="M 841.390564 362.198334 C 816.323792 333.789307 775.425049 324.311768 752.705017 321.169434 L 745.916382 336.686584 C 745.916382 336.686584 814.993591 338.293091 851.138672 379.257446 C 871.182678 401.97406 907.771362 415.79483 936.39563 423.603455 L 967.496704 415.211182 C 967.496704 415.211182 877.535645 403.16275 841.390564 362.198334 Z"/>
    <path id="path10" fill="#ffffff" stroke="none" opacity="0.1" d="M 349.92691 351.144653 C 383.662323 336.686584 337.075439 255.561035 337.075439 255.561035 L 335.800995 254.976929 C 347.415344 279.48175 364.259705 323.765137 340.178833 334.08551 C 317.64563 343.742615 296.548828 319.716614 285.020752 302.694214 C 285.439301 303.898193 285.669098 304.557678 285.669098 304.557678 C 285.669098 304.557678 316.191498 365.602692 349.92691 351.144653 Z"/>
    <path id="path11" fill="#ffffff" stroke="none" opacity="0.1" d="M 459.968628 403.354187 C 459.968628 403.354187 470.133972 372.020569 451.037292 352.674652 C 455.720215 369.340881 450.220581 386.295044 450.220581 386.295044 C 437.793457 358.334259 395.092224 346.237671 376.388428 342.192139 C 377.113861 351.50119 377.236572 357.570465 377.236572 357.570465 C 377.236572 357.570465 443.904175 367.209137 459.968628 403.354187 Z"/>
    <path id="path12" fill="#ffffff" stroke="none" opacity="0.1" d="M 500.619629 110.502014 C 502.429688 104.445496 502.430115 102.75708 502.430115 102.75708 Z"/>
    <path id="path13" fill="#ffffff" stroke="none" opacity="0.1" d="M 99.636971 432.423706 C 99.798973 432.371582 99.963463 432.323914 100.124397 432.270264 C 133.859802 421.025085 162.775909 378.454224 192.495224 363.996277 C 222.214554 349.53833 239.88533 330.260864 280.046448 351.144653 C 280.046448 351.144653 273.020386 322.384949 259.404968 303.490173 C 263.914673 313.354187 267.559479 323.591064 270.29837 334.08551 C 230.137253 313.201782 212.466324 332.479126 182.747147 346.937134 C 153.027832 361.395142 124.111732 403.965973 90.37632 415.211151 C 56.640911 426.456299 1.218509 403.965942 1.218509 403.965942 C 1.218509 403.965942 38.166782 427.25946 85.557014 431.275543 C 90.978142 431.734955 95.603783 432.14035 99.636971 432.423706 Z"/>
    <path id="path14" fill="#ffffff" stroke="none" opacity="0.1" d="M 434.510712 822.445618 C 449.228027 777.32959 484.621948 652.571777 456.755798 569.62146 C 444.72168 533.798706 433.56723 510.955658 424.137604 496.382538 C 431.189423 510.177948 438.899261 528.425537 447.007751 552.562378 C 481.546326 655.375 418.894806 822.445618 418.894806 822.445618 Z"/>
    <path id="path15" fill="#ffffff" stroke="none" opacity="0.1" d="M 120.829247 480.30719 C 130.676819 481.306702 140.262054 484.081024 149.121078 488.495941 C 182.107849 504.989227 206.582626 515.449463 236.383896 503.300751 C 243.172714 499.714508 250.76622 495.276642 259.523346 489.993256 C 260.206085 489.495026 260.882294 489.016815 261.572449 488.495941 C 304.14325 456.366943 362.778656 414.599304 419.807373 439.499237 C 419.807373 439.499237 408.281647 428.198364 395.361603 417.467468 C 343.09079 404.644775 290.74411 442.063354 251.824387 471.436798 C 209.253464 503.565765 181.140717 492.320587 139.373001 471.436798 C 97.605263 450.553009 55.034489 473.846436 55.034489 473.846436 C 86.068993 472.915344 106.066719 475.703339 120.829247 480.30719 Z"/>
    <path id="path16" fill="#ffffff" stroke="none" opacity="0.1" d="M 202.359177 121.465942 C 203.275406 123.008789 204.385483 124.427979 205.662338 125.688782 C 204.724503 124.160767 203.616379 122.74408 202.359177 121.465942 Z"/>
    <path id="path17" fill="#ffffff" stroke="none" opacity="0.1" d="M 349.123718 252.348206 C 350.365234 253.522278 351.528473 254.776367 352.605957 256.1026 C 349.087433 247.644287 344.74231 240.330322 339.375641 235.289063 C 312.869324 210.389099 269.495178 211.995544 269.495178 211.995544 L 323.890808 236.92688 C 333.21167 240.404114 341.777832 245.639404 349.123718 252.348206 Z"/>
    <path id="path18" fill="#ffffff" stroke="none" opacity="0.1" d="M 406.846405 143.721497 C 410.12442 148.456238 408.282684 168.549744 405.290253 189.099976 C 399.175385 231.094727 405.769653 274.096985 425.207642 311.821167 C 427.766449 316.883911 430.624359 321.789856 433.766235 326.513 C 415.256989 289.362 409.050812 247.279175 415.03833 206.159119 C 418.030762 185.608887 419.872498 165.515381 416.594482 160.78064 C 409.36554 150.338745 378.842987 86.080811 376.43335 69.213074 C 375.710876 62.669189 375.542542 56.075989 375.930145 49.503784 C 369.690796 31.800659 369.09494 -0.055603 369.09494 -0.055603 C 369.09494 -0.055603 364.275635 35.286316 366.685272 52.153931 C 369.09494 69.021606 399.617462 133.279602 406.846405 143.721497 Z"/>
    <path id="path19" fill="#ffffff" stroke="none" opacity="0.1" d="M 482.201111 32.678772 C 481.879272 31.091187 481.390503 29.542114 480.742981 28.057312 C 480.742981 28.057312 481.360229 29.790833 482.201111 32.678772 Z"/>
    <path id="path20" fill="#ffffff" stroke="none" opacity="0.1" d="M 198.49913 113.573853 C 205.57811 114.44043 213.720963 116.612427 219.932236 121.649536 C 219.527054 120.279175 219.17363 119.050659 218.892227 118.018311 C 211.663132 91.511963 173.108429 96.33136 173.108429 96.33136 C 190.531815 98.565063 195.032211 106.017395 198.49913 113.573853 Z"/>
    <path id="path21" fill="#2a2a2b" stroke="none" d="M 398.137421 788.12616 C 403.864349 809.296387 423.480408 822.407654 423.480408 822.407654 C 423.480408 822.407654 433.811279 801.195129 428.08432 780.024902 C 422.357391 758.854675 402.741333 745.743408 402.741333 745.743408 C 402.741333 745.743408 392.410461 766.955872 398.137421 788.12616 Z"/>
    <path id="path22" fill="#4a4a4a" stroke="none" d="M 406.552704 783.576416 C 422.267548 798.874207 424.187012 822.390381 424.187012 822.390381 C 424.187012 822.390381 400.627686 821.104004 384.912872 805.806274 C 369.198029 790.508545 367.278564 766.992249 367.278564 766.992249 C 367.278564 766.992249 390.837921 768.278687 406.552704 783.576416 Z"/>
    <path id="path23" fill="#4a4a4a" stroke="none" d="M 354.46698 209.5849 C 353.1008 231.47345 336.511719 248.251404 336.511719 248.251404 C 336.511719 248.251404 322.137634 229.540955 323.503815 207.652344 C 324.869995 185.763733 341.459045 168.985779 341.459045 168.985779 C 341.459045 168.985779 355.83313 187.696289 354.46698 209.5849 Z"/>
    <path id="path24" fill="#4a4a4a" stroke="none" d="M 181.540741 71.209045 C 200.092667 82.905334 206.859329 105.508606 206.859329 105.508606 C 206.859329 105.508606 183.547318 109.148438 164.995438 97.452209 C 146.443558 85.75592 139.676849 63.152649 139.676849 63.152649 C 139.676849 63.152649 162.988831 59.512756 181.540741 71.209045 Z"/>
    <path id="path25" fill="#4a4a4a" stroke="none" d="M 140.111435 338.062683 C 158.663361 349.758942 165.430008 372.362213 165.430008 372.362213 C 165.430008 372.362213 142.118057 376.002075 123.566124 364.305786 C 105.014198 352.609497 98.247536 330.006226 98.247536 330.006226 C 98.247536 330.006226 121.559502 326.366394 140.111435 338.062683 Z"/>
    <path id="path26" fill="#4a4a4a" stroke="none" d="M 238.810745 440.41745 C 257.36264 452.113739 264.129303 474.71701 264.129303 474.71701 C 264.129303 474.71701 240.817307 478.356903 222.265427 466.660614 C 203.713547 454.964355 196.946854 432.361053 196.946854 432.361053 C 196.946854 432.361053 220.258774 428.721191 238.810745 440.41745 Z"/>
    <path id="path27" fill="#4a4a4a" stroke="none" d="M 517.26416 110.220886 C 511.669434 131.426453 492.135498 144.659912 492.135498 144.659912 C 492.135498 144.659912 481.672546 123.512268 487.267212 102.306702 C 492.861938 81.101196 512.395874 67.867737 512.395874 67.867737 C 512.395874 67.867737 522.858887 89.01532 517.26416 110.220886 Z"/>
    <path id="path28" fill="#4a4a4a" stroke="none" d="M 693.74762 126.755371 C 687.171875 147.677551 667.043152 159.987305 667.043152 159.987305 C 667.043152 159.987305 657.575867 138.37561 664.151611 117.453491 C 670.727356 96.531311 690.856079 84.221497 690.856079 84.221497 C 690.856079 84.221497 700.323364 105.833191 693.74762 126.755371 Z"/>
    <path id="path29" fill="#4a4a4a" stroke="none" d="M 884.498474 359.609131 C 872.586975 378.02359 849.906372 384.52655 849.906372 384.52655 C 849.906372 384.52655 846.538269 361.173798 858.449768 342.759338 C 870.361328 324.344849 893.04187 317.841919 893.04187 317.841919 C 893.04187 317.841919 896.409973 341.194672 884.498474 359.609131 Z"/>
    <path id="path30" fill="#ffb9b9" stroke="none" d="M 585.035217 510.183441 C 585.035217 510.183441 583.121887 517.198853 586.948486 519.75 C 590.775146 522.301025 592.050659 534.418701 592.050659 534.418701 L 584.3974 555.46521 L 563.988708 559.29187 L 556.335449 544.623047 L 556.335449 522.938843 C 556.335449 522.938843 558.886536 512.09668 558.248779 508.907867 C 557.611023 505.718964 585.035217 510.183441 585.035217 510.183441 Z"/>
    <path id="path31" fill="#000000" stroke="none" opacity="0.2" d="M 585.035217 510.183441 C 585.035217 510.183441 583.121887 517.198853 586.948486 519.75 C 590.775146 522.301025 592.050659 534.418701 592.050659 534.418701 L 584.3974 555.46521 L 563.988708 559.29187 L 556.335449 544.623047 L 556.335449 522.938843 C 556.335449 522.938843 558.886536 512.09668 558.248779 508.907867 C 557.611023 505.718964 585.035217 510.183441 585.035217 510.183441 Z"/>
    <path id="path32" fill="#696969" stroke="none" d="M 605.443909 630.72229 L 622.02594 633.911133 C 622.02594 633.911133 623.301514 652.406555 622.02594 656.870911 C 620.750427 661.335327 619.474854 666.4375 620.750427 667.713074 C 622.02594 668.988586 615.010437 701.514954 615.648254 703.428284 C 616.286072 705.341553 617.561523 711.081543 616.923767 714.908142 C 616.286011 718.734802 614.372681 717.459229 615.648254 721.285889 C 616.923767 725.112488 618.199341 725.750305 616.923767 728.301392 C 615.648254 730.852478 609.270508 792.716309 607.357178 793.354065 C 605.443909 793.991821 588.22406 794.629639 588.22406 793.354065 C 588.22406 792.078552 593.963989 782.511963 592.050659 779.960876 C 590.13739 777.40979 592.688477 734.041321 592.688477 732.127991 C 592.688477 730.214661 596.515076 727.025818 594.601746 725.750305 C 592.688477 724.474731 591.412903 723.199219 592.050659 721.285889 C 592.688477 719.372559 593.963989 718.734802 592.688477 716.821472 C 591.412903 714.908142 591.412903 676.641846 586.948486 675.366333 C 586.948486 675.366333 581.208496 703.428345 583.121887 710.443787 C 585.035278 717.459229 582.48407 720.010315 582.48407 720.010315 L 591.412903 727.663574 L 579.295227 750.623352 L 566.539795 735.954651 C 566.539795 735.954651 566.539795 732.127991 563.988708 731.490234 C 561.437622 730.852478 560.162109 730.214661 560.162109 728.301392 C 560.162109 726.388062 555.697693 714.270386 555.697693 714.270386 C 555.697693 714.270386 542.942261 674.090759 549.320007 653.682068 C 555.697693 633.273376 558.154663 633.948914 558.154663 633.948914 Z"/>
    <path id="path33" fill="#ffb9b9" stroke="none" d="M 615.64801 762.741394 L 622.664001 770.394409 L 620.112976 791.440369 L 614.372986 791.440369 L 605.44397 771.669373 L 615.64801 762.741394 Z"/>
    <path id="path34" fill="#222222" stroke="none" d="M 620.11261 776.772034 C 620.11261 776.772034 617.561523 782.512024 615.648254 781.236389 C 613.734924 779.960815 613.100708 778.047546 610.228943 778.047546 C 607.357239 778.047546 604.806091 778.685364 605.443909 779.960876 C 606.081665 781.236389 613.734863 795.267395 613.734863 795.267395 C 616.008362 800.116333 616.008362 805.725037 613.734863 810.573914 C 609.908264 818.864929 623.939209 823.329346 626.490295 814.400574 C 629.041382 805.471741 629.679199 795.267395 629.041382 791.440796 C 628.403625 787.614136 632.230286 767.843201 632.230286 767.843201 C 632.230286 767.843201 621.927185 763.093445 618.787659 762.917236 C 618.78772 762.917236 621.388184 774.220947 620.11261 776.772034 Z"/>
    <path id="path35" fill="#222222" stroke="none" d="M 602.892822 790.802979 L 605.443909 798.456238 C 605.443909 798.456238 605.443909 806.109497 607.994995 809.936157 C 610.546021 813.762756 613.097168 822.053833 602.892822 822.691589 C 592.688477 823.329346 588.22406 819.502747 588.22406 819.502747 C 588.22406 819.502747 590.137329 814.400574 588.22406 812.487244 C 586.31073 810.573914 588.22406 806.747314 588.22406 806.747314 L 590.137329 791.440796 Z"/>
    <path id="path36" fill="#696969" stroke="none" d="M 585.672974 727.025818 L 591.412964 727.025818 L 620.112671 764.654358 C 620.112671 764.654358 615.010498 776.772034 607.357239 778.047546 C 607.357239 778.047546 606.081726 777.40979 600.341736 773.58313 C 594.601807 769.756531 579.295288 750.623352 579.295288 750.623352 L 577.381958 739.78125 Z"/>
    <path id="path37" fill="#ffb9b9" stroke="none" d="M 592.05072 498.065765 C 592.05072 509.337189 582.913391 518.474487 571.642029 518.474487 C 560.370605 518.474487 551.233337 509.337189 551.233337 498.065765 C 551.233337 486.794373 560.370605 477.657074 571.642029 477.657074 C 582.913391 477.657074 592.05072 486.794373 592.05072 498.065765 Z"/>
    <path id="path38" fill="#ffffff" stroke="none" d="M 596.515076 524.214355 L 590.137329 521.66333 C 590.137329 521.66333 589.499573 543.985352 577.381958 543.985352 C 565.264282 543.985352 552.50885 540.796509 552.50885 534.418701 C 552.50885 528.041016 542.304504 545.89856 542.304504 545.89856 C 542.304504 545.89856 551.871033 609.675842 551.233276 610.313599 C 550.59552 610.951355 558.248779 644.753296 558.248779 644.753296 C 558.248779 644.753296 590.775146 646.028809 601.617249 641.564392 C 612.459351 637.100037 615.648254 628.80896 615.648254 628.80896 L 611.183838 572.685059 L 602.255066 529.316528 Z"/>
    <path id="path39" fill="#222222" stroke="none" d="M 585.676636 518.474487 C 585.676636 518.474487 588.22406 515.92334 592.050659 518.474487 C 595.877258 521.025513 619.474854 526.765503 619.474854 528.678833 L 619.474854 552.914063 C 619.474854 552.914063 620.11261 556.740723 618.19928 559.29187 C 616.28595 561.842896 611.821594 571.409546 614.372681 575.873901 C 616.923767 580.338257 626.490295 631.997864 624.577026 638.375549 C 622.663696 644.753296 617.561523 650.493225 617.561523 650.493225 C 617.561523 650.493225 590.137329 592.455933 590.137329 575.873901 C 590.137329 559.29187 590.403503 538.948486 590.403503 538.948486 Z"/>
    <path id="path40" fill="#222222" stroke="none" d="M 613.734924 529.316528 L 619.474854 529.316528 C 619.474854 529.316528 641.159119 570.771729 641.159119 579.062744 C 641.159119 587.35376 627.128113 633.273376 625.8526 633.911133 C 624.577087 634.54895 620.750427 626.895691 620.750427 626.895691 L 617.561523 601.384827 C 617.561523 601.384827 623.93927 586.078247 622.02594 583.5271 C 620.11261 580.976074 610.546082 561.2052 610.546082 561.2052 Z"/>
    <path id="path41" fill="#222222" stroke="none" d="M 557.278625 518.474487 C 557.278625 518.474487 549.957764 523.57666 548.68219 525.48999 C 547.406677 527.403198 528.273499 538.245361 527.635742 540.796509 C 526.997986 543.347534 542.304504 565.031738 542.304504 565.031738 C 542.304504 565.031738 548.68219 600.747009 548.68219 603.298096 C 548.68219 605.849182 551.233276 649.217651 551.233276 649.217651 C 551.233276 649.217651 577.381958 656.870911 577.381958 652.406555 C 577.381958 647.942139 578.019714 584.164917 574.193054 570.133911 C 570.366455 556.103027 557.278625 518.474487 557.278625 518.474487 Z"/>
    <path id="path42" fill="#ffb9b9" stroke="none" d="M 561.437622 650.493225 C 561.437622 650.493225 583.121887 679.83075 571.641968 679.192932 C 560.162048 678.555176 552.50885 653.682068 552.50885 653.682068 Z"/>
    <path id="path43" fill="#222222" stroke="none" d="M 535.289001 538.883179 L 527.635742 540.796509 C 527.635742 540.796509 521.257996 596.92041 525.084656 604.573669 C 528.911255 612.226929 549.320007 661.973083 549.320007 660.059814 C 549.320007 658.146484 567.273071 654.736206 566.587585 652.933594 C 565.902039 651.130981 562.075378 643.477722 560.799866 640.926636 C 559.524353 638.375549 557.611023 635.186646 558.248779 631.997864 C 558.886536 628.809021 551.233276 615.159668 551.233276 615.159668 C 551.233276 615.159668 549.320007 607.124756 548.68219 603.298096 C 548.044434 599.471497 542.304504 557.37854 542.304504 557.37854 Z"/>
    <path id="path44" fill="#161616" stroke="none" d="M 591.652344 482.267212 C 591.262329 481.067078 590.438904 480.05545 589.342957 479.429962 C 589.400146 478.162964 589.235168 476.895721 588.855347 475.685638 C 587.584961 472.150635 584.5755 472.353271 581.735962 470.790405 C 580.503967 470.112335 580.580139 469.513031 579.938782 468.399292 C 579.077881 466.919464 577.819214 465.710724 576.305786 464.910339 C 574.554382 463.667328 572.53186 462.859711 570.406006 462.554504 C 565.876953 462.263947 562.404602 466.273499 558.075928 467.560303 C 556.167908 468.127441 554.117737 468.150818 552.199707 468.687042 C 550.281677 469.223236 548.368042 470.50354 548.082153 472.367523 C 547.950195 473.228027 548.183044 474.11084 548.049194 474.97113 C 547.783081 476.681 546.18927 477.87851 545.122375 479.284882 C 542.763 482.394897 543.032898 486.788483 544.919678 490.172272 C 545.319214 490.875336 545.77417 491.545441 546.280151 492.176178 C 546.440308 493.784393 546.92926 495.342499 547.716614 496.753876 C 549.603394 500.137665 552.850098 502.666229 556.241638 504.766998 C 555.964172 503.646881 555.795715 502.502594 555.738586 501.350006 C 555.690796 500.965607 555.744019 500.575409 555.892944 500.217865 C 556.27063 499.474701 557.268677 499.277008 558.029663 498.870026 C 559.506165 497.899811 560.358398 496.220123 560.269409 494.455597 C 560.315002 492.749847 559.930908 491.041229 560.120789 489.344391 C 560.141541 488.543732 560.512939 487.792572 561.136536 487.289948 C 561.724304 486.976257 562.386108 486.827728 563.051514 486.860229 C 566.280823 486.736206 569.654968 486.680359 572.503418 485.242981 C 573.427734 484.665985 574.414734 484.196045 575.445313 483.842224 C 577.866028 483.248077 580.340149 484.845062 581.735229 486.799591 C 583.130371 488.75412 583.825928 491.080048 585.113159 493.099152 C 586.40033 495.118256 588.624023 496.918793 591.112732 496.679596 C 591.392578 496.681793 591.661133 496.569366 591.855957 496.3685 C 591.96283 496.189056 592.010742 495.980621 591.992859 495.772552 L 592.131897 486.818329 C 592.247253 485.28479 592.084839 483.743011 591.652344 482.267212 Z"/>
    <path id="path45" fill="#2a2a2b" stroke="none" d="M 1055.523438 843.060547 C 1055.523438 847.997681 999.345459 852 930.046387 852 C 860.747375 852 804.569336 847.997681 804.569336 843.060547 C 804.569336 838.123474 860.747375 834.121155 930.046387 834.121155 C 999.345459 834.121155 1055.523438 838.123474 1055.523438 843.060547 Z"/>
    <path id="path46" fill="#000000" stroke="none" d="M 886.127258 822.109253 C 886.127258 822.109253 875.414917 831.130127 869.776855 830.566345 C 864.138855 830.002502 853.426514 830.002502 857.936951 836.204407 C 862.447388 842.40625 881.052979 845.789063 888.946289 846.352905 C 896.8396 846.916687 914.317505 847.480469 913.189941 844.097656 C 912.062317 840.714844 910.934692 824.928284 906.424255 823.800659 C 901.913818 822.673035 886.127258 822.109253 886.127258 822.109253 Z"/>
    <path id="path47" fill="#000000" stroke="none" d="M 947.610168 813.252441 C 947.610168 813.252441 939.71637 824.820435 934.134216 825.792664 C 928.552063 826.764832 918.233887 829.64386 924.245239 834.405334 C 930.256531 839.166809 949.086731 837.424805 956.841187 835.846497 C 964.595581 834.268188 981.582031 830.113892 979.58667 827.158569 C 977.591431 824.203247 972.262573 809.300598 967.61499 809.426636 C 962.967407 809.552734 947.610168 813.252441 947.610168 813.252441 Z"/>
    <path id="path48" fill="#1f1f1f" stroke="none" d="M 879.852112 647.813721 C 879.852112 647.813721 872.595886 697.508179 874.287292 706.529053 C 875.97876 715.549988 877.106323 729.645081 877.106323 729.645081 C 877.106323 729.645081 875.978699 741.484985 877.106323 747.123047 C 878.233948 752.761169 884.999573 806.322693 884.999573 807.450317 C 884.999573 808.577881 883.872009 811.960754 884.999573 814.779785 C 886.127197 817.598816 888.382446 815.343567 884.999573 819.854004 C 881.61676 824.364441 883.872009 825.492065 884.435791 825.492065 C 884.999573 825.492065 906.988037 827.747314 908.115601 825.492065 C 909.243225 823.236877 907.551819 822.673096 908.115601 819.854004 C 908.679443 817.034973 909.243225 816.471191 910.37085 815.907349 C 911.498474 815.343567 913.753662 816.471191 912.062256 813.652161 C 910.37085 810.83313 906.424194 807.450317 907.551819 805.75885 C 908.679443 804.067444 906.988037 791.663757 906.988037 791.663757 C 906.988037 791.663757 905.860413 764.037231 905.296631 747.123047 C 904.732788 730.208862 910.37085 712.730896 910.37085 712.730896 C 911.073059 726.570251 916.213074 739.815552 925.029846 750.50592 C 939.688782 767.983948 947.01825 800.684631 947.01825 800.684631 C 947.01825 800.684631 950.401123 805.75885 948.709717 810.269348 C 947.018311 814.779785 941.944031 811.960754 947.01825 814.779785 C 952.092529 817.598816 969.570557 813.652161 971.261963 811.960754 C 972.953369 810.269409 969.006714 808.014099 970.134277 803.503662 C 971.261963 798.993225 975.772339 800.12085 971.825684 797.865601 C 967.879028 795.610413 966.751465 796.174194 966.751465 793.919006 C 966.751465 791.663757 956.603027 742.612671 940.816406 728.517517 L 939.688782 677.211182 C 939.688782 677.211182 953.783936 641.127625 939.125 637.744812 C 924.466064 634.361938 879.852112 647.813721 879.852112 647.813721 Z"/>
    <path id="path49" fill="#a0616a" stroke="none" d="M 890.073853 514.27124 C 890.073853 514.27124 899.658569 537.951172 897.403381 541.333984 C 895.148132 544.716797 925.029846 530.057861 925.029846 530.057861 C 925.029846 530.057861 915.445129 506.378021 915.445129 503.55899 C 915.445129 500.73996 890.073853 514.27124 890.073853 514.27124 Z"/>
    <path id="path50" fill="#a0616a" stroke="none" d="M 917.9823 499.330444 C 917.9823 510.851563 908.642578 520.191284 897.12146 520.191284 C 885.600342 520.191284 876.260681 510.851563 876.260681 499.330444 C 876.260681 487.809357 885.600342 478.469635 897.12146 478.469635 C 908.642578 478.469635 917.9823 487.809357 917.9823 499.330444 Z"/>
    <path id="path51" fill="#000000" stroke="none" d="M 925.029846 520.473145 C 925.029846 520.473145 910.37085 518.781738 903.041382 527.802612 C 895.711975 536.823608 894.584351 539.078735 894.584351 539.078735 C 894.584351 539.078735 877.106323 567.269043 880.489197 581.364258 C 881.313721 582.636841 882.06665 583.954346 882.744385 585.310791 C 883.872009 587.56604 883.872009 619.139221 882.744385 624.213501 C 881.616821 629.28772 880.489197 630.979126 881.616821 638.308594 C 882.744446 645.638062 872.595886 657.478027 884.435791 659.733215 C 896.275696 661.988464 905.296631 660.297058 909.243286 655.222778 C 913.18988 650.14856 909.807068 646.765686 922.210815 646.765686 C 929.806396 646.633545 937.065552 643.608887 942.507813 638.308594 C 942.507813 638.308594 936.305908 631.542969 938.561157 630.415344 C 940.816345 629.28772 938.561157 626.468689 937.433533 623.649658 C 936.305908 620.830627 936.305908 618.575439 937.997375 618.575439 C 939.688782 618.575439 938.561157 617.447815 937.433533 614.628784 C 936.305908 611.809753 957.166748 563.322388 944.763 549.227295 C 932.359314 535.132202 926.15741 527.238892 926.15741 527.238892 C 926.15741 527.238892 928.41272 518.781738 925.029846 520.473145 Z"/>
    <path id="path52" fill="#a0616a" stroke="none" d="M 892.892883 574.034668 L 892.892883 598.842224 L 874.851135 658.605652 C 874.851135 658.605652 863.01123 689.614929 874.851135 689.614929 C 886.69104 689.614929 886.056702 660.0177 886.056702 660.0177 L 911.498535 615.192566 C 911.498535 615.192566 921.647034 579.672729 920.519409 576.85376 C 919.391785 574.034668 892.892883 574.034668 892.892883 574.034668 Z"/>
    <path id="path53" fill="#000000" stroke="none" d="M 902.4776 537.387329 C 902.4776 537.387329 885.563416 544.152954 890.073853 562.194824 C 894.58429 580.236572 890.073853 579.672729 890.073853 579.672729 C 890.073853 579.672729 913.18988 577.417603 920.519409 582.491821 L 922.210815 575.726074 C 922.210815 575.726074 928.976501 536.823486 902.4776 537.387329 Z"/>
    <path id="path54" fill="#000000" stroke="none" d="M 889.99823 483.669769 C 887.353638 484.608063 884.414307 484.150665 882.179871 482.453125 C 879.97937 480.658508 879.25177 477.613373 880.403381 475.017822 C 881.48291 472.89917 883.791992 471.736816 886.006226 470.869995 C 890.890564 468.959473 896.035461 467.79776 901.266846 467.424194 C 903.760925 467.246826 906.38031 467.274933 908.606079 468.414276 C 909.707336 468.978027 910.663879 469.791656 911.754578 470.37561 C 913.760071 471.449402 916.093811 471.688141 918.261169 472.379242 C 922.74762 473.842804 926.378601 477.18045 928.213989 481.528015 C 928.803284 482.987213 929.214905 484.511993 929.440002 486.069489 C 930.088257 490.33371 929.635376 494.692841 928.12439 498.732758 C 925.721069 505.131683 920.68042 510.725922 920.395935 517.555298 C 917.31073 515.317017 916.166687 511.276947 913.694336 508.375885 C 911.85498 506.231537 909.342773 504.774384 906.568115 504.242462 C 905.799927 504.195648 905.061951 503.926544 904.44397 503.467926 C 904.01355 502.953766 903.743774 502.324371 903.668213 501.658112 L 901.55719 491.690948 C 901.127563 489.662506 900.584656 487.450958 898.917419 486.218292 C 897.879395 485.55426 896.701782 485.139374 895.476746 485.006134 C 892.565674 484.497406 889.617737 484.228607 886.662659 484.202484"/>
</svg>
